<?xml version="1.0" encoding="UTF-8"?>
<svg width="36px" height="36px" viewBox="0 0 36 36" version="1.1" xmlns="http://www.w3.org/2000/svg" xmlns:xlink="http://www.w3.org/1999/xlink">
    <!-- Generator: Sketch 51.1 (57501) - http://www.bohemiancoding.com/sketch -->
    <title>Artboard 2 Copy</title>
    <desc>Created with Sketch.</desc>
    <defs></defs>
    <g id="Artboard-2-Copy" stroke="none" stroke-width="1" fill="none" fill-rule="evenodd">
        <g id="facebook" transform="translate(7.000000, 7.000000)" fill="#FFFFFF" fill-rule="nonzero">
            <path d="M20.605761,0 L1.20367722,0 C0.53875383,0 0,0.53883555 0,1.20375894 L0,20.6058427 C0,21.2706027 0.53875383,21.8096016 1.20367722,21.8096016 L11.6491113,21.8096016 L11.6491113,13.3637589 L8.8069459,13.3637589 L8.8069459,10.072237 L11.6491113,10.072237 L11.6491113,7.6448621 C11.6491113,4.8279469 13.3695608,3.2940552 15.8824923,3.2940552 C17.0861696,3.2940552 18.1207763,3.3836159 18.4223085,3.4237385 L18.4223085,6.3675587 L16.6793871,6.3683759 C15.3127681,6.3683759 15.0480899,7.0177732 15.0480899,7.9708274 L15.0480899,10.072237 L18.3074974,10.072237 L17.8830644,13.3637589 L15.0480899,13.3637589 L15.0480899,21.8096016 L20.605761,21.8096016 C21.2704392,21.8096016 21.8094382,21.2706027 21.8094382,20.6058427 L21.8094382,1.20375894 C21.8094382,0.53883555 21.2704392,0 20.605761,0" id="Fill-1"></path>
        </g>
    </g>
</svg>