<?xml version="1.0" encoding="UTF-8"?>
<svg width="36px" height="36px" viewBox="0 0 36 36" version="1.1" xmlns="http://www.w3.org/2000/svg" xmlns:xlink="http://www.w3.org/1999/xlink">
    <!-- Generator: Sketch 51.1 (57501) - http://www.bohemiancoding.com/sketch -->
    <title>Artboard 2</title>
    <desc>Created with Sketch.</desc>
    <defs>
        <polygon id="path-1" points="11.9724475 23.9449188 0 23.9449188 0 0 11.9724475 0 23.944895 0 23.944895 23.9449188"></polygon>
    </defs>
    <g id="Artboard-2" stroke="none" stroke-width="1" fill="none" fill-rule="evenodd">
        <g id="instagram-copy" transform="translate(6.000000, 6.000000)">
            <g id="Group-3" transform="translate(0.000000, 0.039968)">
                <g id="Fill-1-Clipped">
                    <mask id="mask-2" fill="white">
                        <use xlink:href="#path-1"></use>
                    </mask>
                    <g id="path-1"></g>
                    <path d="M11.9724832,0 C8.72093465,0 8.3132198,0.0137821782 7.03627723,0.0720475248 C5.76190099,0.130170297 4.89162772,0.332578218 4.13004356,0.628514851 C3.34274851,0.934479208 2.67507327,1.34385743 2.00948911,2.00944158 C1.34390495,2.67507327 0.934526733,3.34274851 0.628562376,4.13004356 C0.332578218,4.8915802 0.130217822,5.76190099 0.0720475248,7.0362297 C0.0137821782,8.3132198 0,8.72093465 0,11.9724832 C0,15.2239842 0.0137821782,15.631699 0.0720475248,16.9086891 C0.130217822,18.1830178 0.332578218,19.0533386 0.628562376,19.8148752 C0.934526733,20.6021703 1.34390495,21.2698455 2.00948911,21.9354772 C2.67507327,22.6010614 3.34274851,23.0104396 4.13004356,23.316404 C4.89162772,23.6123406 5.76190099,23.8147485 7.03627723,23.8728713 C8.3132198,23.9311842 8.72093465,23.9449188 11.9724832,23.9449188 C15.2240317,23.9449188 15.631699,23.9311842 16.9086891,23.8728713 C18.1830653,23.8147485 19.0533386,23.6123406 19.8149228,23.316404 C20.6022178,23.0104396 21.2698931,22.6010614 21.9354772,21.9354772 C22.6010614,21.2698455 23.0104396,20.6021703 23.316404,19.8148752 C23.6123881,19.0533386 23.8147485,18.1830178 23.8729188,16.9086891 C23.9311842,15.631699 23.9449188,15.2239842 23.9449188,11.9724832 C23.9449188,8.72093465 23.9311842,8.3132198 23.8729188,7.0362297 C23.8147485,5.76190099 23.6123881,4.8915802 23.316404,4.13004356 C23.0104396,3.34274851 22.6010614,2.67507327 21.9354772,2.00944158 C21.2698931,1.34385743 20.6022178,0.934479208 19.8149228,0.628514851 C19.0533386,0.332578218 18.1830653,0.130170297 16.9086891,0.0720475248 C15.631699,0.0137821782 15.2240317,0 11.9724832,0 M11.9724832,2.15719604 C15.1692832,2.15719604 15.5479129,2.1694099 16.8103604,2.2270099 C17.9776634,2.28023762 18.611596,2.47527921 19.0335208,2.6392396 C19.5923168,2.85642772 19.9911921,3.11586535 20.4101228,3.53484356 C20.8290535,3.95377426 21.0885386,4.35260198 21.3056792,4.91144554 C21.4696396,5.33332277 21.6646812,5.96725545 21.7179564,7.13455842 C21.7755564,8.39700594 21.7877228,8.77568317 21.7877228,11.9724832 C21.7877228,15.1692356 21.7755564,15.5479129 21.7179564,16.8103604 C21.6646812,17.9776634 21.4696396,18.611596 21.3056792,19.0334733 C21.0885386,19.5923168 20.8290535,19.9911446 20.4101228,20.4100752 C19.9911921,20.8290535 19.5923168,21.0884911 19.0335208,21.3056792 C18.611596,21.4696396 17.9776634,21.6646812 16.8103604,21.7179089 C15.548103,21.7755089 15.1694733,21.7877228 11.9724832,21.7877228 C8.77549307,21.7877228 8.39686337,21.7755089 7.13460594,21.7179089 C5.96730297,21.6646812 5.33332277,21.4696396 4.91144554,21.3056792 C4.3526495,21.0884911 3.95377426,20.8290535 3.53484356,20.4100752 C3.11591287,19.9911446 2.85642772,19.5923168 2.6392396,19.0334733 C2.47532673,18.611596 2.28028515,17.9776634 2.2270099,16.8103604 C2.1694099,15.5479129 2.15724356,15.1692356 2.15724356,11.9724832 C2.15724356,8.77568317 2.1694099,8.39700594 2.2270099,7.13455842 C2.28028515,5.96725545 2.47532673,5.33332277 2.6392396,4.91144554 C2.85642772,4.35260198 3.11591287,3.95377426 3.53484356,3.53484356 C3.95377426,3.11586535 4.3526495,2.85642772 4.91144554,2.6392396 C5.33332277,2.47527921 5.96730297,2.28023762 7.13455842,2.2270099 C8.39705347,2.1694099 8.77568317,2.15719604 11.9724832,2.15719604" id="Fill-1" fill="#FFFFFF" fill-rule="nonzero" mask="url(#mask-2)"></path>
                </g>
            </g>
            <path d="M11.9724594,16.010804 C9.76840396,16.010804 7.98161584,14.2240634 7.98161584,12.0200079 C7.98161584,9.81590495 9.76840396,8.02916436 11.9724594,8.02916436 C14.1765149,8.02916436 15.9632554,9.81590495 15.9632554,12.0200079 C15.9632554,14.2240634 14.1765149,16.010804 11.9724594,16.010804 M11.9724594,5.87196832 C8.57700594,5.87196832 5.8244198,8.62450693 5.8244198,12.0200079 C5.8244198,15.4154614 8.57700594,18.168 11.9724594,18.168 C15.3679129,18.168 18.120499,15.4154614 18.120499,12.0200079 C18.120499,8.62450693 15.3679129,5.87196832 11.9724594,5.87196832" id="Fill-4" fill="#FFFFFF" fill-rule="nonzero"></path>
            <path d="M19.8000855,5.62905505 C19.8000855,6.42252832 19.156838,7.06572832 18.3634123,7.06572832 C17.569939,7.06572832 16.9266915,6.42252832 16.9266915,5.62905505 C16.9266915,4.83558178 17.569939,4.19238178 18.3634123,4.19238178 C19.156838,4.19238178 19.8000855,4.83558178 19.8000855,5.62905505" id="Fill-6" fill="#FFFFFF" fill-rule="nonzero"></path>
        </g>
    </g>
</svg>