<?xml version="1.0" encoding="UTF-8"?>
<svg width="203px" height="23px" viewBox="0 0 203 23" version="1.1" xmlns="http://www.w3.org/2000/svg" xmlns:xlink="http://www.w3.org/1999/xlink">
    <!-- Generator: Sketch 51.1 (57501) - http://www.bohemiancoding.com/sketch -->
    <title>Villanova Magazine Copy</title>
    <desc>Created with Sketch.</desc>
    <defs></defs>
    <g id="Page-1" stroke="none" stroke-width="1" fill="none" fill-rule="evenodd">
        <g id="home-copy-3" transform="translate(-96.000000, -1207.000000)" fill="#FFFFFF">
            <path d="M107.935547,1209.86426 L107.935547,1209.42383 C109.03125,1209.4668 109.804688,1209.48828 110.814453,1209.48828 C111.383789,1209.48828 112.071289,1209.4668 112.511719,1209.42383 L112.511719,1209.86426 C111.824219,1210.19727 110.964844,1211.07812 110.30957,1212.94727 L106.023438,1225 C105.668945,1224.97852 105.25,1224.95703 104.852539,1224.95703 C104.455078,1224.95703 104.057617,1224.97852 103.713867,1225 L97.9453125,1211.27148 C97.5263672,1210.26172 97.0429688,1209.88574 96.6455078,1209.86426 L96.6455078,1209.42383 C97.7089844,1209.4668 99.2021484,1209.48828 100.652344,1209.48828 C102.145508,1209.48828 103.552734,1209.4668 104.347656,1209.42383 L104.347656,1209.86426 C103.359375,1209.90723 102.800781,1210.02539 102.800781,1210.66992 C102.800781,1210.92773 102.886719,1211.26074 103.069336,1211.71191 L106.882812,1221.08984 L109.009766,1215.0957 C109.503906,1213.68848 109.729492,1212.625 109.729492,1211.83008 C109.729492,1210.45508 109.052734,1209.90723 107.935547,1209.86426 Z M115.788086,1207.79102 C117.302734,1207.79102 118.183594,1208.43555 118.183594,1209.69238 C118.183594,1210.93848 117.302734,1211.58301 115.788086,1211.58301 C114.241211,1211.58301 113.392578,1210.93848 113.392578,1209.69238 C113.392578,1208.43555 114.241211,1207.79102 115.788086,1207.79102 Z M117.893555,1213.34473 L117.893555,1222.95898 C117.893555,1224.18359 118.226562,1224.53809 119.128906,1224.53809 L119.128906,1225 C118.538086,1224.97852 117.238281,1224.91406 116.00293,1224.91406 C114.77832,1224.91406 113.338867,1224.97852 112.705078,1225 L112.705078,1224.53809 C113.607422,1224.53809 113.94043,1224.18359 113.94043,1222.95898 L113.94043,1215.97656 C113.94043,1214.65527 113.628906,1214.04297 112.705078,1214.04297 L112.705078,1213.58105 C113.166992,1213.62402 113.628906,1213.64551 114.069336,1213.64551 C115.541016,1213.64551 116.797852,1213.55957 117.893555,1213.34473 Z M125.09082,1207.79102 L125.09082,1222.95898 C125.09082,1224.18359 125.423828,1224.53809 126.326172,1224.53809 L126.326172,1225 C125.735352,1224.97852 124.435547,1224.91406 123.200195,1224.91406 C121.964844,1224.91406 120.536133,1224.97852 119.902344,1225 L119.902344,1224.53809 C120.804688,1224.53809 121.137695,1224.18359 121.137695,1222.95898 L121.137695,1210.43359 C121.137695,1209.1123 120.826172,1208.5 119.902344,1208.5 L119.902344,1208.03809 C120.364258,1208.08105 120.826172,1208.10254 121.266602,1208.10254 C122.738281,1208.10254 123.995117,1208.0166 125.09082,1207.79102 Z M132.30957,1207.79102 L132.30957,1222.95898 C132.30957,1224.18359 132.642578,1224.53809 133.544922,1224.53809 L133.544922,1225 C132.954102,1224.97852 131.654297,1224.91406 130.418945,1224.91406 C129.183594,1224.91406 127.754883,1224.97852 127.121094,1225 L127.121094,1224.53809 C128.023438,1224.53809 128.356445,1224.18359 128.356445,1222.95898 L128.356445,1210.43359 C128.356445,1209.1123 128.044922,1208.5 127.121094,1208.5 L127.121094,1208.03809 C127.583008,1208.08105 128.044922,1208.10254 128.485352,1208.10254 C129.957031,1208.10254 131.213867,1208.0166 132.30957,1207.79102 Z M140.280273,1217.48047 L140.280273,1215.51465 C140.280273,1214.83789 140.054688,1213.70996 138.647461,1213.70996 C138.271484,1213.70996 137.80957,1213.87109 137.487305,1214.08594 C138.432617,1214.44043 138.958984,1215.07422 138.958984,1216.07324 C138.958984,1217.10449 138.121094,1217.9209 136.842773,1217.9209 C135.74707,1217.9209 135.038086,1217.08301 135.038086,1215.99805 C135.038086,1215.07422 135.618164,1214.39746 136.402344,1213.97852 C137.304688,1213.5166 138.389648,1213.26953 139.925781,1213.26953 C141.461914,1213.26953 142.675781,1213.49512 143.513672,1214.37598 C144.125977,1215.00977 144.233398,1215.93359 144.233398,1217.45898 L144.233398,1223.3457 C144.233398,1224.05469 144.330078,1224.29102 144.566406,1224.29102 C144.834961,1224.29102 145.049805,1224.11914 145.253906,1223.96875 L145.46875,1224.34473 C144.770508,1224.93555 143.868164,1225.15039 142.611328,1225.15039 C140.957031,1225.15039 140.366211,1224.36621 140.344727,1223.48535 C139.732422,1224.49512 138.561523,1225.15039 137.197266,1225.15039 C135.435547,1225.15039 134.425781,1224.14062 134.425781,1222.62598 C134.425781,1221.13281 135.285156,1220.15527 137.21875,1219.52148 C138.9375,1218.90918 140.280273,1218.46875 140.280273,1217.48047 Z M140.280273,1223.02344 L140.280273,1218.38281 C140.097656,1218.68359 139.732422,1219.03809 139.420898,1219.34961 C138.765625,1219.9834 138.34668,1220.75684 138.34668,1221.83105 C138.34668,1222.98047 138.830078,1223.38867 139.463867,1223.38867 C139.775391,1223.38867 140.011719,1223.30273 140.280273,1223.02344 Z M151.269531,1213.34473 L151.269531,1214.92383 C151.978516,1213.75293 153.192383,1213.26953 154.771484,1213.26953 C156.114258,1213.26953 156.833984,1213.64551 157.25293,1214.15039 C157.693359,1214.67676 157.897461,1215.49316 157.897461,1216.99707 L157.897461,1222.95898 C157.897461,1224.18359 158.230469,1224.53809 159.12207,1224.53809 L159.12207,1225 C158.53125,1224.97852 157.188477,1224.91406 156.049805,1224.91406 C154.814453,1224.91406 153.514648,1224.97852 152.923828,1225 L152.923828,1224.53809 C153.675781,1224.53809 153.933594,1224.18359 153.933594,1222.95898 L153.933594,1215.80469 C153.933594,1214.88086 153.62207,1214.41895 152.859375,1214.41895 C152.042969,1214.41895 151.269531,1215.07422 151.269531,1215.99805 L151.269531,1222.95898 C151.269531,1224.18359 151.538086,1224.53809 152.290039,1224.53809 L152.290039,1225 C151.731445,1224.97852 150.52832,1224.91406 149.378906,1224.91406 C148.154297,1224.91406 146.714844,1224.97852 146.081055,1225 L146.081055,1224.53809 C146.983398,1224.53809 147.316406,1224.18359 147.316406,1222.95898 L147.316406,1215.97656 C147.316406,1214.65527 147.004883,1214.04297 146.081055,1214.04297 L146.081055,1213.58105 C146.542969,1213.62402 147.004883,1213.64551 147.445312,1213.64551 C148.916992,1213.64551 150.173828,1213.55957 151.269531,1213.34473 Z M165.707031,1213.26953 C169.112305,1213.26953 171.357422,1214.85938 171.357422,1219.30664 C171.357422,1223.74316 169.112305,1225.31152 165.707031,1225.31152 C162.291016,1225.31152 160.045898,1223.74316 160.045898,1219.30664 C160.045898,1214.85938 162.291016,1213.26953 165.707031,1213.26953 Z M165.707031,1213.70996 C164.826172,1213.70996 164.160156,1215.36426 164.160156,1219.30664 C164.160156,1223.23828 164.826172,1224.87109 165.707031,1224.87109 C166.587891,1224.87109 167.243164,1223.23828 167.243164,1219.30664 C167.243164,1215.36426 166.587891,1213.70996 165.707031,1213.70996 Z M179.5,1214.04297 L179.5,1213.58105 C180.123047,1213.64551 181.283203,1213.66699 181.80957,1213.66699 C182.335938,1213.66699 183.173828,1213.64551 183.506836,1213.58105 L183.506836,1214.04297 C182.958984,1214.24707 182.432617,1214.75195 181.949219,1216.18066 L178.973633,1225 C178.629883,1224.96777 178.264648,1224.94629 177.910156,1224.94629 C177.555664,1224.94629 177.19043,1224.96777 176.835938,1225 L173.011719,1215.27832 C172.571289,1214.15039 172.044922,1214.04297 171.733398,1214.04297 L171.733398,1213.58105 C172.904297,1213.66699 174.118164,1213.70996 175.654297,1213.70996 C176.556641,1213.70996 177.630859,1213.64551 178.511719,1213.58105 L178.511719,1214.04297 C177.813477,1214.04297 177.244141,1214.02148 177.244141,1214.60156 C177.244141,1214.6875 177.254883,1214.77344 177.276367,1214.88086 L179.671875,1221.54102 L180.692383,1218.51172 C180.993164,1217.62012 181.111328,1216.86816 181.111328,1216.25586 C181.111328,1214.81641 180.413086,1214.10742 179.5,1214.04297 Z M189.823242,1217.48047 L189.823242,1215.51465 C189.823242,1214.83789 189.597656,1213.70996 188.19043,1213.70996 C187.814453,1213.70996 187.352539,1213.87109 187.030273,1214.08594 C187.975586,1214.44043 188.501953,1215.07422 188.501953,1216.07324 C188.501953,1217.10449 187.664062,1217.9209 186.385742,1217.9209 C185.290039,1217.9209 184.581055,1217.08301 184.581055,1215.99805 C184.581055,1215.07422 185.161133,1214.39746 185.945312,1213.97852 C186.847656,1213.5166 187.932617,1213.26953 189.46875,1213.26953 C191.004883,1213.26953 192.21875,1213.49512 193.056641,1214.37598 C193.668945,1215.00977 193.776367,1215.93359 193.776367,1217.45898 L193.776367,1223.3457 C193.776367,1224.05469 193.873047,1224.29102 194.109375,1224.29102 C194.37793,1224.29102 194.592773,1224.11914 194.796875,1223.96875 L195.011719,1224.34473 C194.313477,1224.93555 193.411133,1225.15039 192.154297,1225.15039 C190.5,1225.15039 189.90918,1224.36621 189.887695,1223.48535 C189.275391,1224.49512 188.104492,1225.15039 186.740234,1225.15039 C184.978516,1225.15039 183.96875,1224.14062 183.96875,1222.62598 C183.96875,1221.13281 184.828125,1220.15527 186.761719,1219.52148 C188.480469,1218.90918 189.823242,1218.46875 189.823242,1217.48047 Z M189.823242,1223.02344 L189.823242,1218.38281 C189.640625,1218.68359 189.275391,1219.03809 188.963867,1219.34961 C188.308594,1219.9834 187.889648,1220.75684 187.889648,1221.83105 C187.889648,1222.98047 188.373047,1223.38867 189.006836,1223.38867 C189.318359,1223.38867 189.554688,1223.30273 189.823242,1223.02344 Z M220.685547,1209.42383 L220.685547,1209.86426 C219.342773,1209.92871 219.12793,1210.1543 219.12793,1211.75488 L219.12793,1222.66895 C219.12793,1224.26953 219.364258,1224.49512 220.685547,1224.55957 L220.685547,1225 C219.783203,1224.95703 218.24707,1224.93555 216.786133,1224.93555 C215.207031,1224.93555 213.713867,1224.95703 212.875977,1225 L212.875977,1224.55957 C214.369141,1224.49512 214.65918,1224.26953 214.65918,1222.66895 L214.65918,1211.40039 L209.352539,1224.97852 L208.998047,1224.97852 L202.799805,1210.85254 L202.799805,1220.69238 C202.799805,1223.63574 202.928711,1224.26953 205.023438,1224.55957 L205.023438,1225 C204.432617,1224.95703 203.369141,1224.93555 202.552734,1224.93555 C201.897461,1224.93555 201.166992,1224.95703 200.726562,1225 L200.726562,1224.55957 C202.069336,1224.26953 202.294922,1223.61426 202.294922,1221.13281 L202.294922,1211.75488 C202.294922,1210.1543 202.047852,1209.92871 200.726562,1209.86426 L200.726562,1209.42383 C201.166992,1209.4668 201.897461,1209.48828 202.552734,1209.48828 C204.25,1209.48828 205.839844,1209.4668 207.107422,1209.42383 L211.264648,1218.76953 L214.874023,1209.48828 L216.786133,1209.48828 C218.24707,1209.48828 219.783203,1209.4668 220.685547,1209.42383 Z M227.635742,1217.48047 L227.635742,1215.51465 C227.635742,1214.83789 227.410156,1213.70996 226.00293,1213.70996 C225.626953,1213.70996 225.165039,1213.87109 224.842773,1214.08594 C225.788086,1214.44043 226.314453,1215.07422 226.314453,1216.07324 C226.314453,1217.10449 225.476562,1217.9209 224.198242,1217.9209 C223.102539,1217.9209 222.393555,1217.08301 222.393555,1215.99805 C222.393555,1215.07422 222.973633,1214.39746 223.757812,1213.97852 C224.660156,1213.5166 225.745117,1213.26953 227.28125,1213.26953 C228.817383,1213.26953 230.03125,1213.49512 230.869141,1214.37598 C231.481445,1215.00977 231.588867,1215.93359 231.588867,1217.45898 L231.588867,1223.3457 C231.588867,1224.05469 231.685547,1224.29102 231.921875,1224.29102 C232.19043,1224.29102 232.405273,1224.11914 232.609375,1223.96875 L232.824219,1224.34473 C232.125977,1224.93555 231.223633,1225.15039 229.966797,1225.15039 C228.3125,1225.15039 227.72168,1224.36621 227.700195,1223.48535 C227.087891,1224.49512 225.916992,1225.15039 224.552734,1225.15039 C222.791016,1225.15039 221.78125,1224.14062 221.78125,1222.62598 C221.78125,1221.13281 222.640625,1220.15527 224.574219,1219.52148 C226.292969,1218.90918 227.635742,1218.46875 227.635742,1217.48047 Z M227.635742,1223.02344 L227.635742,1218.38281 C227.453125,1218.68359 227.087891,1219.03809 226.776367,1219.34961 C226.121094,1219.9834 225.702148,1220.75684 225.702148,1221.83105 C225.702148,1222.98047 226.185547,1223.38867 226.819336,1223.38867 C227.130859,1223.38867 227.367188,1223.30273 227.635742,1223.02344 Z M236.863281,1221.91699 L241.858398,1221.91699 C243.598633,1221.91699 245.091797,1222.54004 245.091797,1224.49512 C245.091797,1226.71875 243.029297,1229.13574 238.582031,1229.13574 C234.532227,1229.13574 233.415039,1228.16895 233.415039,1227.30957 C233.415039,1225.70898 236.143555,1226.6543 237.035156,1225.56934 L236.31543,1225.56934 C235.43457,1225.56934 233.683594,1225.21484 233.683594,1223.28125 C233.683594,1221.8418 234.435547,1220.99316 236.530273,1219.99414 C234.908203,1219.5 233.855469,1218.45801 233.855469,1216.79297 C233.855469,1214.37598 236.057617,1213.26953 239.022461,1213.26953 C239.484375,1213.26953 239.924805,1213.29102 240.34375,1213.35547 C240.333008,1213.20508 240.322266,1213.05469 240.322266,1212.9043 C240.322266,1211.27148 241.052734,1209.99316 242.803711,1209.99316 C243.845703,1209.99316 244.705078,1210.51953 244.705078,1211.46484 C244.705078,1212.30273 243.910156,1212.9043 242.900391,1212.9043 C241.858398,1212.9043 241.310547,1212.48535 240.93457,1211.75488 C240.827148,1212.06641 240.78418,1212.46387 240.78418,1212.9043 C240.78418,1213.07617 240.794922,1213.24805 240.816406,1213.41992 C242.835938,1213.80664 244.189453,1214.8916 244.189453,1216.79297 C244.189453,1219.20996 241.998047,1220.31641 239.022461,1220.31641 C238.270508,1220.31641 237.572266,1220.24121 236.938477,1220.10156 C236.390625,1220.4668 236.079102,1220.72461 236.079102,1221.19727 C236.079102,1221.70215 236.379883,1221.91699 236.863281,1221.91699 Z M239.022461,1213.66699 C238.324219,1213.66699 237.905273,1214.44043 237.905273,1216.79297 C237.905273,1219.14551 238.324219,1219.91895 239.022461,1219.91895 C239.731445,1219.91895 240.150391,1219.14551 240.150391,1216.79297 C240.150391,1214.44043 239.731445,1213.66699 239.022461,1213.66699 Z M241.03125,1225.56934 L237.475586,1225.56934 C237.25,1226.05273 237.196289,1226.74023 237.196289,1226.99805 C237.196289,1228.10449 237.862305,1228.75977 239.183594,1228.75977 C240.891602,1228.75977 242.041016,1227.75 242.041016,1226.27832 C242.041016,1225.83789 241.793945,1225.56934 241.03125,1225.56934 Z M251.633789,1217.48047 L251.633789,1215.51465 C251.633789,1214.83789 251.408203,1213.70996 250.000977,1213.70996 C249.625,1213.70996 249.163086,1213.87109 248.84082,1214.08594 C249.786133,1214.44043 250.3125,1215.07422 250.3125,1216.07324 C250.3125,1217.10449 249.474609,1217.9209 248.196289,1217.9209 C247.100586,1217.9209 246.391602,1217.08301 246.391602,1215.99805 C246.391602,1215.07422 246.97168,1214.39746 247.755859,1213.97852 C248.658203,1213.5166 249.743164,1213.26953 251.279297,1213.26953 C252.81543,1213.26953 254.029297,1213.49512 254.867188,1214.37598 C255.479492,1215.00977 255.586914,1215.93359 255.586914,1217.45898 L255.586914,1223.3457 C255.586914,1224.05469 255.683594,1224.29102 255.919922,1224.29102 C256.188477,1224.29102 256.40332,1224.11914 256.607422,1223.96875 L256.822266,1224.34473 C256.124023,1224.93555 255.22168,1225.15039 253.964844,1225.15039 C252.310547,1225.15039 251.719727,1224.36621 251.698242,1223.48535 C251.085938,1224.49512 249.915039,1225.15039 248.550781,1225.15039 C246.789062,1225.15039 245.779297,1224.14062 245.779297,1222.62598 C245.779297,1221.13281 246.638672,1220.15527 248.572266,1219.52148 C250.291016,1218.90918 251.633789,1218.46875 251.633789,1217.48047 Z M251.633789,1223.02344 L251.633789,1218.38281 C251.451172,1218.68359 251.085938,1219.03809 250.774414,1219.34961 C250.119141,1219.9834 249.700195,1220.75684 249.700195,1221.83105 C249.700195,1222.98047 250.183594,1223.38867 250.817383,1223.38867 C251.128906,1223.38867 251.365234,1223.30273 251.633789,1223.02344 Z M261.881836,1224.66699 L262.182617,1224.66699 C263.836914,1224.66699 265.749023,1223.72168 265.996094,1220.4668 L266.436523,1220.4668 C266.436523,1222.79785 266.458008,1224.09766 266.522461,1225.08594 C265.158203,1225.02148 263.665039,1225 262.204102,1225 C260.667969,1225 259.013672,1225.04297 257.541992,1225.10742 L262.472656,1213.93555 L262.032227,1213.93555 C260.37793,1213.93555 258.605469,1214.88086 258.358398,1218.13574 L257.917969,1218.13574 C257.917969,1215.80469 257.896484,1214.50488 257.832031,1213.5166 C259.196289,1213.58105 260.689453,1213.60254 262.139648,1213.60254 C263.686523,1213.60254 265.330078,1213.55957 266.801758,1213.49512 L261.881836,1224.66699 Z M270.905273,1207.79102 C272.419922,1207.79102 273.300781,1208.43555 273.300781,1209.69238 C273.300781,1210.93848 272.419922,1211.58301 270.905273,1211.58301 C269.358398,1211.58301 268.509766,1210.93848 268.509766,1209.69238 C268.509766,1208.43555 269.358398,1207.79102 270.905273,1207.79102 Z M273.010742,1213.34473 L273.010742,1222.95898 C273.010742,1224.18359 273.34375,1224.53809 274.246094,1224.53809 L274.246094,1225 C273.655273,1224.97852 272.355469,1224.91406 271.120117,1224.91406 C269.895508,1224.91406 268.456055,1224.97852 267.822266,1225 L267.822266,1224.53809 C268.724609,1224.53809 269.057617,1224.18359 269.057617,1222.95898 L269.057617,1215.97656 C269.057617,1214.65527 268.746094,1214.04297 267.822266,1214.04297 L267.822266,1213.58105 C268.28418,1213.62402 268.746094,1213.64551 269.186523,1213.64551 C270.658203,1213.64551 271.915039,1213.55957 273.010742,1213.34473 Z M280.272461,1213.34473 L280.272461,1214.92383 C280.981445,1213.75293 282.195312,1213.26953 283.774414,1213.26953 C285.117188,1213.26953 285.836914,1213.64551 286.255859,1214.15039 C286.696289,1214.67676 286.900391,1215.49316 286.900391,1216.99707 L286.900391,1222.95898 C286.900391,1224.18359 287.233398,1224.53809 288.125,1224.53809 L288.125,1225 C287.53418,1224.97852 286.191406,1224.91406 285.052734,1224.91406 C283.817383,1224.91406 282.517578,1224.97852 281.926758,1225 L281.926758,1224.53809 C282.678711,1224.53809 282.936523,1224.18359 282.936523,1222.95898 L282.936523,1215.80469 C282.936523,1214.88086 282.625,1214.41895 281.862305,1214.41895 C281.045898,1214.41895 280.272461,1215.07422 280.272461,1215.99805 L280.272461,1222.95898 C280.272461,1224.18359 280.541016,1224.53809 281.292969,1224.53809 L281.292969,1225 C280.734375,1224.97852 279.53125,1224.91406 278.381836,1224.91406 C277.157227,1224.91406 275.717773,1224.97852 275.083984,1225 L275.083984,1224.53809 C275.986328,1224.53809 276.319336,1224.18359 276.319336,1222.95898 L276.319336,1215.97656 C276.319336,1214.65527 276.007812,1214.04297 275.083984,1214.04297 L275.083984,1213.58105 C275.545898,1213.62402 276.007812,1213.64551 276.448242,1213.64551 C277.919922,1213.64551 279.176758,1213.55957 280.272461,1213.34473 Z M298.867188,1218.2002 L293.18457,1218.2002 C293.163086,1218.45801 293.163086,1218.72656 293.163086,1218.99512 C293.163086,1222.09961 294.505859,1222.90527 295.698242,1222.90527 C296.289062,1222.90527 297.395508,1222.77637 298.362305,1221.43359 L298.738281,1221.57324 C298.179688,1223.3457 296.750977,1225.31152 294.140625,1225.31152 C291.31543,1225.31152 289.048828,1223.74316 289.048828,1219.30664 C289.048828,1215.07422 291.519531,1213.26953 294.709961,1213.26953 C297.277344,1213.26953 298.867188,1214.65527 298.867188,1218.2002 Z M293.109375,1217.78125 L295.655273,1217.78125 C295.676758,1215.63281 295.365234,1213.78516 294.548828,1213.78516 C293.775391,1213.78516 293.259766,1214.87012 293.109375,1217.78125 Z" id="Villanova-Magazine-Copy"></path>
        </g>
    </g>
</svg>