<?xml version="1.0" encoding="UTF-8"?>
<svg width="203px" height="23px" viewBox="0 0 203 23" version="1.1" xmlns="http://www.w3.org/2000/svg" xmlns:xlink="http://www.w3.org/1999/xlink">
    <!-- Generator: Sketch 51 (57462) - http://www.bohemiancoding.com/sketch -->
    <title>Villanova Magazine</title>
    <desc>Created with Sketch.</desc>
    <defs></defs>
    <g id="Page-1" stroke="none" stroke-width="1" fill="none" fill-rule="evenodd">
        <g id="home-copy-2" transform="translate(-23.000000, -21.000000)">
            <rect fill="#FFFFFF" x="0" y="0" width="1440" height="6409"></rect>
            <path d="M34.9355469,23.8642578 L34.9355469,23.4238281 C36.03125,23.4667969 36.8046875,23.4882812 37.8144531,23.4882812 C38.3837891,23.4882812 39.0712891,23.4667969 39.5117188,23.4238281 L39.5117188,23.8642578 C38.8242188,24.1972656 37.9648438,25.078125 37.3095703,26.9472656 L33.0234375,39 C32.6689453,38.9785156 32.25,38.9570312 31.8525391,38.9570312 C31.4550781,38.9570312 31.0576172,38.9785156 30.7138672,39 L24.9453125,25.2714844 C24.5263672,24.2617188 24.0429688,23.8857422 23.6455078,23.8642578 L23.6455078,23.4238281 C24.7089844,23.4667969 26.2021484,23.4882812 27.6523438,23.4882812 C29.1455078,23.4882812 30.5527344,23.4667969 31.3476562,23.4238281 L31.3476562,23.8642578 C30.359375,23.9072266 29.8007812,24.0253906 29.8007812,24.6699219 C29.8007812,24.9277344 29.8867188,25.2607422 30.0693359,25.7119141 L33.8828125,35.0898438 L36.0097656,29.0957031 C36.5039062,27.6884766 36.7294922,26.625 36.7294922,25.8300781 C36.7294922,24.4550781 36.0527344,23.9072266 34.9355469,23.8642578 Z M42.7880859,21.7910156 C44.3027344,21.7910156 45.1835938,22.4355469 45.1835938,23.6923828 C45.1835938,24.9384766 44.3027344,25.5830078 42.7880859,25.5830078 C41.2412109,25.5830078 40.3925781,24.9384766 40.3925781,23.6923828 C40.3925781,22.4355469 41.2412109,21.7910156 42.7880859,21.7910156 Z M44.8935547,27.3447266 L44.8935547,36.9589844 C44.8935547,38.1835938 45.2265625,38.5380859 46.1289062,38.5380859 L46.1289062,39 C45.5380859,38.9785156 44.2382812,38.9140625 43.0029297,38.9140625 C41.7783203,38.9140625 40.3388672,38.9785156 39.7050781,39 L39.7050781,38.5380859 C40.6074219,38.5380859 40.9404297,38.1835938 40.9404297,36.9589844 L40.9404297,29.9765625 C40.9404297,28.6552734 40.6289062,28.0429688 39.7050781,28.0429688 L39.7050781,27.5810547 C40.1669922,27.6240234 40.6289062,27.6455078 41.0693359,27.6455078 C42.5410156,27.6455078 43.7978516,27.5595703 44.8935547,27.3447266 Z M52.0908203,21.7910156 L52.0908203,36.9589844 C52.0908203,38.1835938 52.4238281,38.5380859 53.3261719,38.5380859 L53.3261719,39 C52.7353516,38.9785156 51.4355469,38.9140625 50.2001953,38.9140625 C48.9648438,38.9140625 47.5361328,38.9785156 46.9023438,39 L46.9023438,38.5380859 C47.8046875,38.5380859 48.1376953,38.1835938 48.1376953,36.9589844 L48.1376953,24.4335938 C48.1376953,23.1123047 47.8261719,22.5 46.9023438,22.5 L46.9023438,22.0380859 C47.3642578,22.0810547 47.8261719,22.1025391 48.2666016,22.1025391 C49.7382812,22.1025391 50.9951172,22.0166016 52.0908203,21.7910156 Z M59.3095703,21.7910156 L59.3095703,36.9589844 C59.3095703,38.1835938 59.6425781,38.5380859 60.5449219,38.5380859 L60.5449219,39 C59.9541016,38.9785156 58.6542969,38.9140625 57.4189453,38.9140625 C56.1835938,38.9140625 54.7548828,38.9785156 54.1210938,39 L54.1210938,38.5380859 C55.0234375,38.5380859 55.3564453,38.1835938 55.3564453,36.9589844 L55.3564453,24.4335938 C55.3564453,23.1123047 55.0449219,22.5 54.1210938,22.5 L54.1210938,22.0380859 C54.5830078,22.0810547 55.0449219,22.1025391 55.4853516,22.1025391 C56.9570312,22.1025391 58.2138672,22.0166016 59.3095703,21.7910156 Z M67.2802734,31.4804688 L67.2802734,29.5146484 C67.2802734,28.8378906 67.0546875,27.7099609 65.6474609,27.7099609 C65.2714844,27.7099609 64.8095703,27.8710938 64.4873047,28.0859375 C65.4326172,28.4404297 65.9589844,29.0742188 65.9589844,30.0732422 C65.9589844,31.1044922 65.1210938,31.9208984 63.8427734,31.9208984 C62.7470703,31.9208984 62.0380859,31.0830078 62.0380859,29.9980469 C62.0380859,29.0742188 62.6181641,28.3974609 63.4023438,27.9785156 C64.3046875,27.5166016 65.3896484,27.2695312 66.9257812,27.2695312 C68.4619141,27.2695312 69.6757812,27.4951172 70.5136719,28.3759766 C71.1259766,29.0097656 71.2333984,29.9335938 71.2333984,31.4589844 L71.2333984,37.3457031 C71.2333984,38.0546875 71.3300781,38.2910156 71.5664062,38.2910156 C71.8349609,38.2910156 72.0498047,38.1191406 72.2539062,37.96875 L72.46875,38.3447266 C71.7705078,38.9355469 70.8681641,39.1503906 69.6113281,39.1503906 C67.9570312,39.1503906 67.3662109,38.3662109 67.3447266,37.4853516 C66.7324219,38.4951172 65.5615234,39.1503906 64.1972656,39.1503906 C62.4355469,39.1503906 61.4257812,38.140625 61.4257812,36.6259766 C61.4257812,35.1328125 62.2851562,34.1552734 64.21875,33.5214844 C65.9375,32.9091797 67.2802734,32.46875 67.2802734,31.4804688 Z M67.2802734,37.0234375 L67.2802734,32.3828125 C67.0976562,32.6835938 66.7324219,33.0380859 66.4208984,33.3496094 C65.765625,33.9833984 65.3466797,34.7568359 65.3466797,35.8310547 C65.3466797,36.9804688 65.8300781,37.3886719 66.4638672,37.3886719 C66.7753906,37.3886719 67.0117188,37.3027344 67.2802734,37.0234375 Z M78.2695312,27.3447266 L78.2695312,28.9238281 C78.9785156,27.7529297 80.1923828,27.2695312 81.7714844,27.2695312 C83.1142578,27.2695312 83.8339844,27.6455078 84.2529297,28.1503906 C84.6933594,28.6767578 84.8974609,29.4931641 84.8974609,30.9970703 L84.8974609,36.9589844 C84.8974609,38.1835938 85.2304688,38.5380859 86.1220703,38.5380859 L86.1220703,39 C85.53125,38.9785156 84.1884766,38.9140625 83.0498047,38.9140625 C81.8144531,38.9140625 80.5146484,38.9785156 79.9238281,39 L79.9238281,38.5380859 C80.6757812,38.5380859 80.9335938,38.1835938 80.9335938,36.9589844 L80.9335938,29.8046875 C80.9335938,28.8808594 80.6220703,28.4189453 79.859375,28.4189453 C79.0429688,28.4189453 78.2695312,29.0742188 78.2695312,29.9980469 L78.2695312,36.9589844 C78.2695312,38.1835938 78.5380859,38.5380859 79.2900391,38.5380859 L79.2900391,39 C78.7314453,38.9785156 77.5283203,38.9140625 76.3789062,38.9140625 C75.1542969,38.9140625 73.7148438,38.9785156 73.0810547,39 L73.0810547,38.5380859 C73.9833984,38.5380859 74.3164062,38.1835938 74.3164062,36.9589844 L74.3164062,29.9765625 C74.3164062,28.6552734 74.0048828,28.0429688 73.0810547,28.0429688 L73.0810547,27.5810547 C73.5429688,27.6240234 74.0048828,27.6455078 74.4453125,27.6455078 C75.9169922,27.6455078 77.1738281,27.5595703 78.2695312,27.3447266 Z M92.7070312,27.2695312 C96.1123047,27.2695312 98.3574219,28.859375 98.3574219,33.3066406 C98.3574219,37.7431641 96.1123047,39.3115234 92.7070312,39.3115234 C89.2910156,39.3115234 87.0458984,37.7431641 87.0458984,33.3066406 C87.0458984,28.859375 89.2910156,27.2695312 92.7070312,27.2695312 Z M92.7070312,27.7099609 C91.8261719,27.7099609 91.1601562,29.3642578 91.1601562,33.3066406 C91.1601562,37.2382812 91.8261719,38.8710938 92.7070312,38.8710938 C93.5878906,38.8710938 94.2431641,37.2382812 94.2431641,33.3066406 C94.2431641,29.3642578 93.5878906,27.7099609 92.7070312,27.7099609 Z M106.5,28.0429688 L106.5,27.5810547 C107.123047,27.6455078 108.283203,27.6669922 108.80957,27.6669922 C109.335938,27.6669922 110.173828,27.6455078 110.506836,27.5810547 L110.506836,28.0429688 C109.958984,28.2470703 109.432617,28.7519531 108.949219,30.1806641 L105.973633,39 C105.629883,38.9677734 105.264648,38.9462891 104.910156,38.9462891 C104.555664,38.9462891 104.19043,38.9677734 103.835938,39 L100.011719,29.2783203 C99.5712891,28.1503906 99.0449219,28.0429688 98.7333984,28.0429688 L98.7333984,27.5810547 C99.9042969,27.6669922 101.118164,27.7099609 102.654297,27.7099609 C103.556641,27.7099609 104.630859,27.6455078 105.511719,27.5810547 L105.511719,28.0429688 C104.813477,28.0429688 104.244141,28.0214844 104.244141,28.6015625 C104.244141,28.6875 104.254883,28.7734375 104.276367,28.8808594 L106.671875,35.5410156 L107.692383,32.5117188 C107.993164,31.6201172 108.111328,30.8681641 108.111328,30.2558594 C108.111328,28.8164062 107.413086,28.1074219 106.5,28.0429688 Z M116.823242,31.4804688 L116.823242,29.5146484 C116.823242,28.8378906 116.597656,27.7099609 115.19043,27.7099609 C114.814453,27.7099609 114.352539,27.8710938 114.030273,28.0859375 C114.975586,28.4404297 115.501953,29.0742188 115.501953,30.0732422 C115.501953,31.1044922 114.664062,31.9208984 113.385742,31.9208984 C112.290039,31.9208984 111.581055,31.0830078 111.581055,29.9980469 C111.581055,29.0742188 112.161133,28.3974609 112.945312,27.9785156 C113.847656,27.5166016 114.932617,27.2695312 116.46875,27.2695312 C118.004883,27.2695312 119.21875,27.4951172 120.056641,28.3759766 C120.668945,29.0097656 120.776367,29.9335938 120.776367,31.4589844 L120.776367,37.3457031 C120.776367,38.0546875 120.873047,38.2910156 121.109375,38.2910156 C121.37793,38.2910156 121.592773,38.1191406 121.796875,37.96875 L122.011719,38.3447266 C121.313477,38.9355469 120.411133,39.1503906 119.154297,39.1503906 C117.5,39.1503906 116.90918,38.3662109 116.887695,37.4853516 C116.275391,38.4951172 115.104492,39.1503906 113.740234,39.1503906 C111.978516,39.1503906 110.96875,38.140625 110.96875,36.6259766 C110.96875,35.1328125 111.828125,34.1552734 113.761719,33.5214844 C115.480469,32.9091797 116.823242,32.46875 116.823242,31.4804688 Z M116.823242,37.0234375 L116.823242,32.3828125 C116.640625,32.6835938 116.275391,33.0380859 115.963867,33.3496094 C115.308594,33.9833984 114.889648,34.7568359 114.889648,35.8310547 C114.889648,36.9804688 115.373047,37.3886719 116.006836,37.3886719 C116.318359,37.3886719 116.554688,37.3027344 116.823242,37.0234375 Z M147.685547,23.4238281 L147.685547,23.8642578 C146.342773,23.9287109 146.12793,24.1542969 146.12793,25.7548828 L146.12793,36.6689453 C146.12793,38.2695312 146.364258,38.4951172 147.685547,38.5595703 L147.685547,39 C146.783203,38.9570312 145.24707,38.9355469 143.786133,38.9355469 C142.207031,38.9355469 140.713867,38.9570312 139.875977,39 L139.875977,38.5595703 C141.369141,38.4951172 141.65918,38.2695312 141.65918,36.6689453 L141.65918,25.4003906 L136.352539,38.9785156 L135.998047,38.9785156 L129.799805,24.8525391 L129.799805,34.6923828 C129.799805,37.6357422 129.928711,38.2695312 132.023438,38.5595703 L132.023438,39 C131.432617,38.9570312 130.369141,38.9355469 129.552734,38.9355469 C128.897461,38.9355469 128.166992,38.9570312 127.726562,39 L127.726562,38.5595703 C129.069336,38.2695312 129.294922,37.6142578 129.294922,35.1328125 L129.294922,25.7548828 C129.294922,24.1542969 129.047852,23.9287109 127.726562,23.8642578 L127.726562,23.4238281 C128.166992,23.4667969 128.897461,23.4882812 129.552734,23.4882812 C131.25,23.4882812 132.839844,23.4667969 134.107422,23.4238281 L138.264648,32.7695312 L141.874023,23.4882812 L143.786133,23.4882812 C145.24707,23.4882812 146.783203,23.4667969 147.685547,23.4238281 Z M154.635742,31.4804688 L154.635742,29.5146484 C154.635742,28.8378906 154.410156,27.7099609 153.00293,27.7099609 C152.626953,27.7099609 152.165039,27.8710938 151.842773,28.0859375 C152.788086,28.4404297 153.314453,29.0742188 153.314453,30.0732422 C153.314453,31.1044922 152.476562,31.9208984 151.198242,31.9208984 C150.102539,31.9208984 149.393555,31.0830078 149.393555,29.9980469 C149.393555,29.0742188 149.973633,28.3974609 150.757812,27.9785156 C151.660156,27.5166016 152.745117,27.2695312 154.28125,27.2695312 C155.817383,27.2695312 157.03125,27.4951172 157.869141,28.3759766 C158.481445,29.0097656 158.588867,29.9335938 158.588867,31.4589844 L158.588867,37.3457031 C158.588867,38.0546875 158.685547,38.2910156 158.921875,38.2910156 C159.19043,38.2910156 159.405273,38.1191406 159.609375,37.96875 L159.824219,38.3447266 C159.125977,38.9355469 158.223633,39.1503906 156.966797,39.1503906 C155.3125,39.1503906 154.72168,38.3662109 154.700195,37.4853516 C154.087891,38.4951172 152.916992,39.1503906 151.552734,39.1503906 C149.791016,39.1503906 148.78125,38.140625 148.78125,36.6259766 C148.78125,35.1328125 149.640625,34.1552734 151.574219,33.5214844 C153.292969,32.9091797 154.635742,32.46875 154.635742,31.4804688 Z M154.635742,37.0234375 L154.635742,32.3828125 C154.453125,32.6835938 154.087891,33.0380859 153.776367,33.3496094 C153.121094,33.9833984 152.702148,34.7568359 152.702148,35.8310547 C152.702148,36.9804688 153.185547,37.3886719 153.819336,37.3886719 C154.130859,37.3886719 154.367188,37.3027344 154.635742,37.0234375 Z M163.863281,35.9169922 L168.858398,35.9169922 C170.598633,35.9169922 172.091797,36.5400391 172.091797,38.4951172 C172.091797,40.71875 170.029297,43.1357422 165.582031,43.1357422 C161.532227,43.1357422 160.415039,42.1689453 160.415039,41.3095703 C160.415039,39.7089844 163.143555,40.6542969 164.035156,39.5693359 L163.31543,39.5693359 C162.43457,39.5693359 160.683594,39.2148438 160.683594,37.28125 C160.683594,35.8417969 161.435547,34.9931641 163.530273,33.9941406 C161.908203,33.5 160.855469,32.4580078 160.855469,30.7929688 C160.855469,28.3759766 163.057617,27.2695312 166.022461,27.2695312 C166.484375,27.2695312 166.924805,27.2910156 167.34375,27.3554688 C167.333008,27.2050781 167.322266,27.0546875 167.322266,26.9042969 C167.322266,25.2714844 168.052734,23.9931641 169.803711,23.9931641 C170.845703,23.9931641 171.705078,24.5195312 171.705078,25.4648438 C171.705078,26.3027344 170.910156,26.9042969 169.900391,26.9042969 C168.858398,26.9042969 168.310547,26.4853516 167.93457,25.7548828 C167.827148,26.0664062 167.78418,26.4638672 167.78418,26.9042969 C167.78418,27.0761719 167.794922,27.2480469 167.816406,27.4199219 C169.835938,27.8066406 171.189453,28.8916016 171.189453,30.7929688 C171.189453,33.2099609 168.998047,34.3164062 166.022461,34.3164062 C165.270508,34.3164062 164.572266,34.2412109 163.938477,34.1015625 C163.390625,34.4667969 163.079102,34.7246094 163.079102,35.1972656 C163.079102,35.7021484 163.379883,35.9169922 163.863281,35.9169922 Z M166.022461,27.6669922 C165.324219,27.6669922 164.905273,28.4404297 164.905273,30.7929688 C164.905273,33.1455078 165.324219,33.9189453 166.022461,33.9189453 C166.731445,33.9189453 167.150391,33.1455078 167.150391,30.7929688 C167.150391,28.4404297 166.731445,27.6669922 166.022461,27.6669922 Z M168.03125,39.5693359 L164.475586,39.5693359 C164.25,40.0527344 164.196289,40.7402344 164.196289,40.9980469 C164.196289,42.1044922 164.862305,42.7597656 166.183594,42.7597656 C167.891602,42.7597656 169.041016,41.75 169.041016,40.2783203 C169.041016,39.8378906 168.793945,39.5693359 168.03125,39.5693359 Z M178.633789,31.4804688 L178.633789,29.5146484 C178.633789,28.8378906 178.408203,27.7099609 177.000977,27.7099609 C176.625,27.7099609 176.163086,27.8710938 175.84082,28.0859375 C176.786133,28.4404297 177.3125,29.0742188 177.3125,30.0732422 C177.3125,31.1044922 176.474609,31.9208984 175.196289,31.9208984 C174.100586,31.9208984 173.391602,31.0830078 173.391602,29.9980469 C173.391602,29.0742188 173.97168,28.3974609 174.755859,27.9785156 C175.658203,27.5166016 176.743164,27.2695312 178.279297,27.2695312 C179.81543,27.2695312 181.029297,27.4951172 181.867188,28.3759766 C182.479492,29.0097656 182.586914,29.9335938 182.586914,31.4589844 L182.586914,37.3457031 C182.586914,38.0546875 182.683594,38.2910156 182.919922,38.2910156 C183.188477,38.2910156 183.40332,38.1191406 183.607422,37.96875 L183.822266,38.3447266 C183.124023,38.9355469 182.22168,39.1503906 180.964844,39.1503906 C179.310547,39.1503906 178.719727,38.3662109 178.698242,37.4853516 C178.085938,38.4951172 176.915039,39.1503906 175.550781,39.1503906 C173.789062,39.1503906 172.779297,38.140625 172.779297,36.6259766 C172.779297,35.1328125 173.638672,34.1552734 175.572266,33.5214844 C177.291016,32.9091797 178.633789,32.46875 178.633789,31.4804688 Z M178.633789,37.0234375 L178.633789,32.3828125 C178.451172,32.6835938 178.085938,33.0380859 177.774414,33.3496094 C177.119141,33.9833984 176.700195,34.7568359 176.700195,35.8310547 C176.700195,36.9804688 177.183594,37.3886719 177.817383,37.3886719 C178.128906,37.3886719 178.365234,37.3027344 178.633789,37.0234375 Z M188.881836,38.6669922 L189.182617,38.6669922 C190.836914,38.6669922 192.749023,37.7216797 192.996094,34.4667969 L193.436523,34.4667969 C193.436523,36.7978516 193.458008,38.0976562 193.522461,39.0859375 C192.158203,39.0214844 190.665039,39 189.204102,39 C187.667969,39 186.013672,39.0429688 184.541992,39.1074219 L189.472656,27.9355469 L189.032227,27.9355469 C187.37793,27.9355469 185.605469,28.8808594 185.358398,32.1357422 L184.917969,32.1357422 C184.917969,29.8046875 184.896484,28.5048828 184.832031,27.5166016 C186.196289,27.5810547 187.689453,27.6025391 189.139648,27.6025391 C190.686523,27.6025391 192.330078,27.5595703 193.801758,27.4951172 L188.881836,38.6669922 Z M197.905273,21.7910156 C199.419922,21.7910156 200.300781,22.4355469 200.300781,23.6923828 C200.300781,24.9384766 199.419922,25.5830078 197.905273,25.5830078 C196.358398,25.5830078 195.509766,24.9384766 195.509766,23.6923828 C195.509766,22.4355469 196.358398,21.7910156 197.905273,21.7910156 Z M200.010742,27.3447266 L200.010742,36.9589844 C200.010742,38.1835938 200.34375,38.5380859 201.246094,38.5380859 L201.246094,39 C200.655273,38.9785156 199.355469,38.9140625 198.120117,38.9140625 C196.895508,38.9140625 195.456055,38.9785156 194.822266,39 L194.822266,38.5380859 C195.724609,38.5380859 196.057617,38.1835938 196.057617,36.9589844 L196.057617,29.9765625 C196.057617,28.6552734 195.746094,28.0429688 194.822266,28.0429688 L194.822266,27.5810547 C195.28418,27.6240234 195.746094,27.6455078 196.186523,27.6455078 C197.658203,27.6455078 198.915039,27.5595703 200.010742,27.3447266 Z M207.272461,27.3447266 L207.272461,28.9238281 C207.981445,27.7529297 209.195312,27.2695312 210.774414,27.2695312 C212.117188,27.2695312 212.836914,27.6455078 213.255859,28.1503906 C213.696289,28.6767578 213.900391,29.4931641 213.900391,30.9970703 L213.900391,36.9589844 C213.900391,38.1835938 214.233398,38.5380859 215.125,38.5380859 L215.125,39 C214.53418,38.9785156 213.191406,38.9140625 212.052734,38.9140625 C210.817383,38.9140625 209.517578,38.9785156 208.926758,39 L208.926758,38.5380859 C209.678711,38.5380859 209.936523,38.1835938 209.936523,36.9589844 L209.936523,29.8046875 C209.936523,28.8808594 209.625,28.4189453 208.862305,28.4189453 C208.045898,28.4189453 207.272461,29.0742188 207.272461,29.9980469 L207.272461,36.9589844 C207.272461,38.1835938 207.541016,38.5380859 208.292969,38.5380859 L208.292969,39 C207.734375,38.9785156 206.53125,38.9140625 205.381836,38.9140625 C204.157227,38.9140625 202.717773,38.9785156 202.083984,39 L202.083984,38.5380859 C202.986328,38.5380859 203.319336,38.1835938 203.319336,36.9589844 L203.319336,29.9765625 C203.319336,28.6552734 203.007812,28.0429688 202.083984,28.0429688 L202.083984,27.5810547 C202.545898,27.6240234 203.007812,27.6455078 203.448242,27.6455078 C204.919922,27.6455078 206.176758,27.5595703 207.272461,27.3447266 Z M225.867188,32.2001953 L220.18457,32.2001953 C220.163086,32.4580078 220.163086,32.7265625 220.163086,32.9951172 C220.163086,36.0996094 221.505859,36.9052734 222.698242,36.9052734 C223.289062,36.9052734 224.395508,36.7763672 225.362305,35.4335938 L225.738281,35.5732422 C225.179688,37.3457031 223.750977,39.3115234 221.140625,39.3115234 C218.31543,39.3115234 216.048828,37.7431641 216.048828,33.3066406 C216.048828,29.0742188 218.519531,27.2695312 221.709961,27.2695312 C224.277344,27.2695312 225.867188,28.6552734 225.867188,32.2001953 Z M220.109375,31.78125 L222.655273,31.78125 C222.676758,29.6328125 222.365234,27.7851562 221.548828,27.7851562 C220.775391,27.7851562 220.259766,28.8701172 220.109375,31.78125 Z" id="Villanova-Magazine" fill="#192958"></path>
        </g>
    </g>
</svg>