<?xml version="1.0" encoding="UTF-8"?>
<svg width="390px" height="390px" viewBox="0 0 390 390" version="1.1" xmlns="http://www.w3.org/2000/svg" xmlns:xlink="http://www.w3.org/1999/xlink">
    <!-- Generator: Sketch 57.1 (83088) - https://sketch.com -->
    <title>commons-4</title>
    <desc>Created with Sketch.</desc>
    <defs>
        <polygon id="path-1" points="0.154836 0.695997 81.939456 0.695997 81.939456 111.69 0.154836 111.69"></polygon>
        <polygon id="path-3" points="0.514998 0.695997 82.299618 0.695997 82.299618 111.69 0.514998 111.69"></polygon>
        <polygon id="path-5" points="0 0.673047 270.722331 0.673047 270.722331 146.115 0 146.115"></polygon>
    </defs>
    <g id="commons-4" stroke="none" stroke-width="1" fill="none" fill-rule="evenodd">
        <rect fill="#E2F3F7" x="0" y="0" width="390" height="390"></rect>
        <g id="Group-10" transform="translate(61.000000, 121.000000)">
            <g id="Group-3" transform="translate(5.355000, 34.516494)">
                <mask id="mask-2" fill="white">
                    <use xlink:href="#path-1"></use>
                </mask>
                <g id="Clip-2"></g>
                <path d="M81.939456,105.848307 L43.966386,105.848307 L43.966386,97.085997 L55.652526,97.085997 C68.550426,97.072227 79.001856,86.616207 79.020216,73.718307 C79.020216,72.107217 77.712066,70.799067 76.096386,70.799067 L61.491006,70.799067 C54.775836,70.799067 48.386556,73.704537 43.966386,78.758127 L43.966386,64.955997 L52.728696,64.955997 C62.404416,64.946817 70.244136,57.107097 70.257906,47.431377 C70.257906,45.815697 68.945166,44.507547 67.334076,44.507547 L55.652526,44.507547 C51.333336,44.512137 47.170206,46.114047 43.966386,49.005747 L43.966386,32.825997 L49.809456,32.825997 C57.869496,32.816817 64.405656,26.280657 64.414836,18.220617 C64.414836,16.609527 63.106686,15.301377 61.491006,15.301377 L52.728696,15.301377 C49.561596,15.310557 46.481706,16.361667 43.966386,18.298647 L43.966386,15.301377 C43.957206,7.236747 37.425636,0.705177 29.361006,0.695997 L20.598696,0.695997 C18.987606,0.695997 17.679456,2.004147 17.679456,3.615237 C17.688636,11.675277 24.224796,18.211437 32.284836,18.220617 L38.123316,18.220617 L38.123316,31.481127 C34.919496,28.584837 30.756366,26.987517 26.441766,26.982927 L14.760216,26.982927 C13.144536,26.982927 11.836386,28.291077 11.836386,29.902167 C11.845566,39.577887 19.685286,47.422197 29.361006,47.431377 L38.123316,47.431377 L38.123316,64.152747 C33.703146,59.099157 27.318456,56.198277 20.598696,56.193687 L5.993316,56.193687 C4.382226,56.193687 3.074076,57.501837 3.074076,59.112927 C3.087846,72.010827 13.543866,82.466847 26.441766,82.480617 L38.123316,82.480617 L38.123316,105.848307 L0.154836,105.848307 L0.154836,111.691377 L81.939456,111.691377 L81.939456,105.848307 Z M55.652526,50.350617 L64.043046,50.350617 C62.707356,55.505187 58.057686,59.103747 52.728696,59.112927 L44.338176,59.112927 C45.673866,53.958357 50.323536,50.359797 55.652526,50.350617 L55.652526,50.350617 Z M52.728696,21.139857 L58.071456,21.139857 C56.832156,24.642027 53.522766,26.978337 49.809456,26.982927 L44.466696,26.982927 C45.710586,23.485347 49.019976,21.144447 52.728696,21.139857 L52.728696,21.139857 Z M29.361006,41.588307 C24.036606,41.579127 19.386936,37.980567 18.046656,32.825997 L26.441766,32.825997 C31.766166,32.835177 36.415836,36.433737 37.756116,41.588307 L29.361006,41.588307 Z M26.441766,76.637547 C17.895186,76.628367 10.597086,70.459407 9.155826,62.036757 L20.598696,62.036757 C29.149866,62.045937 36.447966,68.214897 37.884636,76.637547 L26.441766,76.637547 Z M61.491006,76.637547 L72.933876,76.637547 C71.497206,85.064787 64.199106,91.233747 55.652526,91.242927 L44.209656,91.242927 C45.646326,82.815687 52.944426,76.651317 61.491006,76.637547 L61.491006,76.637547 Z M32.284836,12.377547 C28.571526,12.372957 25.262136,10.036647 24.022836,6.539067 L29.361006,6.539067 C33.074316,6.539067 36.383706,8.879967 37.627596,12.377547 L32.284836,12.377547 Z" id="Fill-1" fill="#231F20" mask="url(#mask-2)"></path>
            </g>
            <g id="Group-6" transform="translate(188.190000, 34.516494)">
                <mask id="mask-4" fill="white">
                    <use xlink:href="#path-3"></use>
                </mask>
                <g id="Clip-5"></g>
                <path d="M82.299618,105.848307 L44.326548,105.848307 L44.326548,97.085997 L56.012688,97.085997 C68.910588,97.072227 79.362018,86.616207 79.380378,73.718307 C79.380378,72.107217 78.072228,70.799067 76.456548,70.799067 L61.851168,70.799067 C55.135998,70.799067 48.746718,73.704537 44.326548,78.758127 L44.326548,64.955997 L53.088858,64.955997 C62.764578,64.946817 70.604298,57.107097 70.618068,47.431377 C70.618068,45.815697 69.305328,44.507547 67.694238,44.507547 L56.012688,44.507547 C51.693498,44.512137 47.530368,46.114047 44.326548,49.005747 L44.326548,32.825997 L50.169618,32.825997 C58.229658,32.816817 64.765818,26.280657 64.774998,18.220617 C64.774998,16.609527 63.466848,15.301377 61.851168,15.301377 L53.088858,15.301377 C49.921758,15.310557 46.841868,16.361667 44.326548,18.298647 L44.326548,15.301377 C44.317368,7.236747 37.785798,0.705177 29.721168,0.695997 L20.958858,0.695997 C19.347768,0.695997 18.039618,2.004147 18.039618,3.615237 C18.048798,11.675277 24.584958,18.211437 32.644998,18.220617 L38.488068,18.220617 L38.488068,31.481127 C35.279658,28.584837 31.121118,26.987517 26.801928,26.982927 L15.120378,26.982927 C13.504698,26.982927 12.196548,28.291077 12.196548,29.902167 C12.205728,39.577887 20.045448,47.422197 29.721168,47.431377 L38.488068,47.431377 L38.488068,64.152747 C34.063308,59.099157 27.678618,56.198277 20.958858,56.193687 L6.353478,56.193687 C4.742388,56.193687 3.434238,57.501837 3.434238,59.112927 C3.448008,72.010827 13.904028,82.466847 26.801928,82.480617 L38.488068,82.480617 L38.488068,105.848307 L0.514998,105.848307 L0.514998,111.691377 L82.299618,111.691377 L82.299618,105.848307 Z M56.012688,50.350617 L64.403208,50.350617 C63.067518,55.505187 58.417848,59.103747 53.088858,59.112927 L44.698338,59.112927 C46.034028,53.958357 50.683698,50.359797 56.012688,50.350617 L56.012688,50.350617 Z M53.088858,21.139857 L58.431618,21.139857 C57.192318,24.642027 53.882928,26.978337 50.169618,26.982927 L44.826858,26.982927 C46.070748,23.485347 49.380138,21.144447 53.088858,21.139857 L53.088858,21.139857 Z M29.721168,41.588307 C24.396768,41.579127 19.747098,37.980567 18.406818,32.825997 L26.801928,32.825997 C32.126328,32.835177 36.775998,36.433737 38.116278,41.588307 L29.721168,41.588307 Z M26.801928,76.637547 C18.255348,76.628367 10.957248,70.459407 9.515988,62.036757 L20.958858,62.036757 C29.510028,62.045937 36.808128,68.214897 38.244798,76.637547 L26.801928,76.637547 Z M61.851168,76.637547 L73.294038,76.637547 C71.857368,85.064787 64.559268,91.233747 56.012688,91.242927 L44.569818,91.242927 C46.006488,82.815687 53.304588,76.651317 61.851168,76.637547 L61.851168,76.637547 Z M32.644998,12.377547 C28.931688,12.372957 25.622298,10.036647 24.382998,6.539067 L29.721168,6.539067 C33.434478,6.539067 36.743868,8.879967 37.987758,12.377547 L32.644998,12.377547 Z" id="Fill-4" fill="#231F20" mask="url(#mask-4)"></path>
            </g>
            <g id="Group-9" transform="translate(0.000000, 0.091494)">
                <mask id="mask-6" fill="white">
                    <use xlink:href="#path-5"></use>
                </mask>
                <g id="Clip-8"></g>
                <path d="M270.722331,138.460257 L136.317951,138.460257 L136.317951,126.976077 L151.625601,126.976077 C168.530571,126.957717 182.227131,113.261157 182.245491,96.360777 C182.245491,94.244787 180.533421,92.532717 178.417431,92.532717 L159.281721,92.532717 C150.482691,92.537307 142.110531,96.337827 136.317951,102.965787 L136.317951,84.876597 L147.802131,84.876597 C160.479711,84.862827 170.752131,74.590407 170.765901,61.912827 C170.765901,59.801427 169.049241,58.084767 166.937841,58.084767 L151.625601,58.084767 C145.970721,58.089357 140.517801,60.186987 136.317951,63.978327 L136.317951,42.777117 L143.974071,42.777117 C154.535661,42.763347 163.096011,34.202997 163.109781,23.636817 C163.109781,21.525417 161.393121,19.808757 159.281721,19.808757 L147.802131,19.808757 C143.648181,19.827117 139.613571,21.204117 136.317951,23.737797 L136.317951,19.808757 C136.304181,9.247167 127.743831,0.686817 117.182241,0.673047 L105.698061,0.673047 C103.586661,0.673047 101.870001,2.389707 101.870001,4.501107 C101.883771,15.062697 110.444121,23.623047 121.010301,23.636817 L128.661831,23.636817 L128.661831,41.014557 C124.466571,37.218627 119.009061,35.120997 113.354181,35.120997 L98.041941,35.120997 C95.930541,35.120997 94.218471,36.833067 94.218471,38.949057 C94.227651,51.626637 104.504661,61.899057 117.182241,61.912827 L128.661831,61.912827 L128.661831,83.825487 C122.869251,77.202117 114.501681,73.401597 105.698061,73.392417 L86.562351,73.392417 C84.450951,73.392417 82.734291,75.109077 82.734291,77.220477 C82.752651,94.125447 96.453801,107.822007 113.354181,107.840367 L128.661831,107.840367 L128.661831,138.460257 L-0.000459,138.460257 L-0.000459,146.116377 L270.722331,146.116377 L270.722331,138.460257 Z M151.625601,65.740887 L162.627831,65.740887 C160.869861,72.492777 154.778931,77.211297 147.802131,77.220477 L136.799901,77.220477 C138.557871,70.463997 144.648801,65.750067 151.625601,65.740887 L151.625601,65.740887 Z M147.802131,27.464877 L154.801881,27.464877 C153.172431,32.050287 148.834881,35.116407 143.974071,35.120997 L136.974321,35.120997 C138.599181,30.535587 142.936731,27.469467 147.802131,27.464877 L147.802131,27.464877 Z M117.182241,54.256707 C110.200851,54.247527 104.109921,49.529007 102.356541,42.777117 L113.354181,42.777117 C120.330981,42.786297 126.426501,47.500227 128.179881,54.256707 L117.182241,54.256707 Z M113.354181,100.184247 C102.154581,100.170477 92.589021,92.092077 90.707121,81.048537 L105.698061,81.048537 C116.897661,81.062307 126.463221,89.145297 128.345121,100.184247 L113.354181,100.184247 Z M159.281721,100.184247 L174.277251,100.184247 C172.390761,111.227787 162.829791,119.310777 151.625601,119.324547 L136.634661,119.324547 C138.516561,108.281007 148.082121,100.202607 159.281721,100.184247 L159.281721,100.184247 Z M121.010301,15.985287 C116.144901,15.976107 111.807351,12.914577 110.182491,8.329167 L117.182241,8.329167 C122.043051,8.333757 126.380601,11.399877 128.010051,15.985287 L121.010301,15.985287 Z" id="Fill-7" fill="#231F20" mask="url(#mask-6)"></path>
            </g>
        </g>
    </g>
</svg>