<?xml version="1.0" encoding="UTF-8"?>
<svg width="390px" height="390px" viewBox="0 0 390 390" version="1.1" xmlns="http://www.w3.org/2000/svg" xmlns:xlink="http://www.w3.org/1999/xlink">
    <!-- Generator: Sketch 57.1 (83088) - https://sketch.com -->
    <title>commons-3</title>
    <desc>Created with Sketch.</desc>
    <defs>
        <polygon id="path-1" points="0.000918 0.53091 197.60409 0.53091 197.60409 198.135 0.000918 198.135"></polygon>
    </defs>
    <g id="commons-3" stroke="none" stroke-width="1" fill="none" fill-rule="evenodd">
        <rect fill="#E2F3F7" x="0" y="0" width="390" height="390"></rect>
        <g id="Group-8" transform="translate(93.000000, 96.000000)">
            <g id="Group-3" transform="translate(0.000000, 0.236385)">
                <mask id="mask-2" fill="white">
                    <use xlink:href="#path-1"></use>
                </mask>
                <g id="Clip-2"></g>
                <path d="M194.313978,20.288106 C196.131618,20.288106 197.605008,18.814716 197.605008,16.997076 L197.605008,3.819186 C197.605008,2.006136 196.131618,0.528156 194.313978,0.528156 L3.291948,0.528156 C1.474308,0.528156 0.000918,2.006136 0.000918,3.819186 L0.000918,16.997076 C0.000918,18.814716 1.474308,20.288106 3.291948,20.288106 L9.878598,20.288106 L9.878598,178.376886 L3.291948,178.376886 C1.474308,178.376886 0.000918,179.850276 0.000918,181.667916 L0.000918,194.841216 C0.000918,196.658856 1.474308,198.136836 3.291948,198.136836 L194.313978,198.136836 C196.131618,198.136836 197.605008,196.658856 197.605008,194.841216 L197.605008,181.667916 C197.605008,179.850276 196.131618,178.376886 194.313978,178.376886 L187.727328,178.376886 L187.727328,20.288106 L194.313978,20.288106 Z M6.587568,191.545596 L191.018358,191.545596 L191.018358,184.958946 L6.587568,184.958946 L6.587568,191.545596 Z M16.465248,178.376886 L181.136088,178.376886 L181.136088,20.288106 L16.465248,20.288106 L16.465248,178.376886 Z M6.587568,13.701456 L191.018358,13.701456 L191.018358,7.114806 L6.587568,7.114806 L6.587568,13.701456 Z" id="Fill-1" fill="#231F20" mask="url(#mask-2)"></path>
            </g>
            <path d="M92.215854,27.112059 L26.349354,27.112059 C24.527124,27.112059 23.053734,28.585449 23.053734,30.407679 L23.053734,168.727329 C23.053734,170.549559 24.527124,172.022949 26.349354,172.022949 L92.215854,172.022949 C94.033494,172.022949 95.511474,170.549559 95.511474,168.727329 L95.511474,30.407679 C95.511474,28.585449 94.033494,27.112059 92.215854,27.112059 L92.215854,27.112059 Z M29.640384,165.436299 L55.986984,165.436299 L55.986984,125.916399 L29.640384,125.916399 L29.640384,165.436299 Z M29.640384,119.329749 L55.986984,119.329749 L55.986984,79.809849 L29.640384,79.809849 L29.640384,119.329749 Z M29.640384,73.223199 L55.986984,73.223199 L55.986984,33.703299 L29.640384,33.703299 L29.640384,73.223199 Z M62.578224,165.436299 L88.924824,165.436299 L88.924824,125.916399 L62.578224,125.916399 L62.578224,165.436299 Z M62.578224,119.329749 L88.924824,119.329749 L88.924824,79.809849 L62.578224,79.809849 L62.578224,119.329749 Z M62.578224,73.223199 L88.924824,73.223199 L88.924824,33.703299 L62.578224,33.703299 L62.578224,73.223199 Z" id="Fill-4" fill="#231F20"></path>
            <path d="M171.259326,27.112059 L105.392826,27.112059 C103.570596,27.112059 102.097206,28.585449 102.097206,30.407679 L102.097206,168.727329 C102.097206,170.549559 103.570596,172.022949 105.392826,172.022949 L171.259326,172.022949 C173.076966,172.022949 174.550356,170.549559 174.550356,168.727329 L174.550356,30.407679 C174.550356,28.585449 173.076966,27.112059 171.259326,27.112059 L171.259326,27.112059 Z M108.683856,165.436299 L135.030456,165.436299 L135.030456,125.916399 L108.683856,125.916399 L108.683856,165.436299 Z M108.683856,119.329749 L135.030456,119.329749 L135.030456,79.809849 L108.683856,79.809849 L108.683856,119.329749 Z M108.683856,73.223199 L135.030456,73.223199 L135.030456,33.703299 L108.683856,33.703299 L108.683856,73.223199 Z M141.617106,165.436299 L167.963706,165.436299 L167.963706,125.916399 L141.617106,125.916399 L141.617106,165.436299 Z M141.617106,119.329749 L167.963706,119.329749 L167.963706,79.809849 L141.617106,79.809849 L141.617106,119.329749 Z M141.617106,73.223199 L167.963706,73.223199 L167.963706,33.703299 L141.617106,33.703299 L141.617106,73.223199 Z" id="Fill-6" fill="#231F20"></path>
        </g>
    </g>
</svg>