<?xml version="1.0" encoding="UTF-8"?>
<svg width="390px" height="390px" viewBox="0 0 390 390" version="1.1" xmlns="http://www.w3.org/2000/svg" xmlns:xlink="http://www.w3.org/1999/xlink">
    <!-- Generator: Sketch 57.1 (83088) - https://sketch.com -->
    <title>commons-2</title>
    <desc>Created with Sketch.</desc>
    <g id="commons-2" stroke="none" stroke-width="1" fill="none" fill-rule="evenodd">
        <rect fill="#E2F3F7" x="0" y="0" width="390" height="390"></rect>
        <g id="Group-9" transform="translate(75.000000, 108.000000)" fill="#231F20">
            <g id="Group-5" transform="translate(0.000000, 0.444465)">
                <path d="M75.581694,32.465223 C51.424524,32.488173 31.848174,52.261893 31.820634,76.657743 C31.820634,101.067363 51.415344,120.854853 75.581694,120.854853 C99.748044,120.854853 119.338164,101.067363 119.338164,76.657743 C119.338164,52.252713 99.748044,32.465223 75.581694,32.465223 M75.581694,112.822353 C55.807974,112.822353 39.779694,96.628833 39.779694,76.657743 C39.779694,56.686653 55.807974,40.497723 75.581694,40.497723 C95.346234,40.520673 111.360744,56.700423 111.379104,76.657743 C111.379104,96.628833 95.350824,112.822353 75.581694,112.822353" id="Fill-1"></path>
                <path d="M230.718645,120.854853 L151.160175,120.854853 L151.160175,80.678583 L167.073705,80.678583 L167.073705,76.657743 C167.137965,52.137963 157.489785,28.609623 140.277285,11.314503 L137.463615,8.473293 L126.052875,20.007963 C113.233005,8.308053 96.814575,1.427643 79.560765,0.528003 L79.560765,0.321453 L75.581235,0.321453 C33.839775,0.321453 0.002295,34.498593 0.002295,76.657743 C0.002295,118.821483 33.839775,152.998623 75.581235,152.998623 L131.271705,152.998623 C137.500335,152.980263 143.352585,150.001353 147.079665,144.961533 L230.718645,144.961533 L230.718645,152.998623 L238.673115,152.998623 L238.673115,120.854853 L230.718645,120.854853 Z M79.560765,24.428133 L79.560765,8.560503 C110.029185,10.391913 135.517455,32.593743 141.791985,62.763813 L141.773625,62.763813 C141.773625,62.818893 141.801165,62.869383 141.814935,62.924463 C142.209675,64.829313 142.466715,66.770883 142.691625,68.730813 C142.732935,69.070473 142.806375,69.400953 142.838505,69.736023 C142.934895,70.695333 142.930305,71.673003 142.985385,72.641493 L127.292175,72.641493 L127.292175,76.657743 C127.292175,105.505893 104.140215,128.891943 75.581235,128.891943 C47.017665,128.891943 23.865705,105.505893 23.865705,76.657743 C23.865705,47.814183 47.017665,24.428133 75.581235,24.428133 L79.560765,24.428133 Z M143.205705,132.912783 C143.205705,139.563693 137.862945,144.961533 131.271705,144.961533 L75.581235,144.961533 C38.250765,144.920223 7.998075,114.364593 7.956765,76.657743 C7.956765,74.344383 8.076105,72.058563 8.301015,69.804873 C8.374455,69.056703 8.525925,68.326893 8.622315,67.583313 C8.824275,66.096153 9.021645,64.604403 9.297045,63.163143 C9.471465,62.286453 9.723915,61.437303 9.930465,60.569793 C10.242585,59.284593 10.531755,57.990213 10.912725,56.732553 C11.192715,55.819143 11.536965,54.937863 11.849085,54.042813 C12.248415,52.876953 12.643155,51.697323 13.115925,50.554413 C13.483125,49.654773 13.909995,48.787263 14.332275,47.901393 C14.832585,46.813563 15.319125,45.721143 15.874515,44.688393 C16.338105,43.807113 16.861365,42.971733 17.357085,42.117993 C17.944605,41.112783 18.518355,40.107573 19.160955,39.125313 C19.707165,38.285343 20.308455,37.491273 20.886795,36.678843 C21.556935,35.751663 22.213305,34.815303 22.929345,33.920253 C23.558175,33.121593 24.228315,32.382603 24.889275,31.629843 C25.632855,30.776103 26.376435,29.926953 27.156735,29.109933 C27.859005,28.375533 28.602585,27.687033 29.336985,26.984763 C30.131055,26.218233 30.961845,25.442523 31.815585,24.712713 C32.586705,24.051753 33.403725,23.422923 34.202385,22.794093 C35.079075,22.105593 35.960355,21.421683 36.869175,20.783673 C37.704555,20.196153 38.572065,19.636173 39.430395,19.080783 C40.371345,18.474903 41.312295,17.878203 42.285375,17.327403 C43.175835,16.813323 44.084655,16.335963 45.007245,15.863193 C45.998685,15.353703 46.994715,14.857983 48.022875,14.394393 C48.968415,13.972113 49.932315,13.568193 50.896215,13.191813 C51.942735,12.787893 52.993845,12.388563 54.077085,12.016773 C55.063935,11.677113 56.064555,11.364993 57.074355,11.075823 C58.166775,10.763703 59.268375,10.474533 60.379155,10.217493 C61.407315,9.978813 62.440065,9.763083 63.481995,9.565713 C64.620315,9.359163 65.767815,9.184743 66.919905,9.037863 C67.980195,8.900163 69.040485,8.776233 70.105365,8.689023 C70.601085,8.652303 71.105985,8.643123 71.601705,8.615583 L71.601705,16.583823 C38.718945,18.796203 13.845735,47.520423 16.039755,80.729073 C18.238365,113.942313 46.673415,139.063383 79.551585,136.851003 C109.395765,134.835993 133.153605,110.821113 135.118125,80.678583 L143.205705,80.678583 L143.205705,132.912783 Z M150.848055,70.309773 C150.783795,69.469803 150.710355,68.629833 150.618555,67.794453 C150.416595,66.041073 150.141195,64.310643 149.819895,62.589393 C149.714325,61.997283 149.627115,61.405173 149.503185,60.822243 C148.011435,53.661843 145.496115,46.758483 142.035255,40.332483 L141.984765,40.245273 C140.883165,38.207313 139.685175,36.224433 138.404565,34.282863 C138.248505,34.053363 138.087855,33.819273 137.927205,33.589773 C136.770525,31.891473 135.549585,30.243663 134.259795,28.641753 C133.988985,28.302093 133.713585,27.971613 133.438185,27.636543 C132.878205,26.966403 132.354945,26.259543 131.767425,25.603173 L137.394765,19.902393 C150.503805,34.379253 158.159925,53.046783 159.022845,72.641493 L151.072965,72.641493 C151.027065,71.856603 150.916905,71.090073 150.848055,70.309773 L150.848055,70.309773 Z M151.160175,136.929033 L230.718645,136.929033 L230.718645,128.891943 L151.160175,128.891943 L151.160175,136.929033 Z" id="Fill-3"></path>
            </g>
            <path d="M47.736,89.156925 L103.42647,89.156925 L103.42647,65.050245 L47.736,65.050245 L47.736,89.156925 Z M55.69047,81.119835 L95.472,81.119835 L95.472,73.087335 L55.69047,73.087335 L55.69047,81.119835 Z" id="Fill-6"></path>
            <polygon id="Fill-7" points="63.64494 57.017745 87.51294 57.017745 87.51294 48.980655 63.64494 48.980655"></polygon>
            <polygon id="Fill-8" points="63.64494 105.231105 87.51294 105.231105 87.51294 97.194015 63.64494 97.194015"></polygon>
        </g>
    </g>
</svg>