<?xml version="1.0" encoding="UTF-8"?>
<svg width="390px" height="390px" viewBox="0 0 390 390" version="1.1" xmlns="http://www.w3.org/2000/svg" xmlns:xlink="http://www.w3.org/1999/xlink">
    <!-- Generator: Sketch 57.1 (83088) - https://sketch.com -->
    <title>commons-5</title>
    <desc>Created with Sketch.</desc>
    <defs>
        <polygon id="path-1" points="0.001377 0.000918 204.995367 0.000918 204.995367 194.414958 0.001377 194.414958"></polygon>
    </defs>
    <g id="commons-5" stroke="none" stroke-width="1" fill="none" fill-rule="evenodd">
        <rect fill="#E2F3F7" x="0" y="0" width="390" height="390"></rect>
        <g id="Group-3" transform="translate(92.000000, 98.000000)">
            <mask id="mask-2" fill="white">
                <use xlink:href="#path-1"></use>
            </mask>
            <g id="Clip-2"></g>
            <path d="M56.825577,117.690813 C57.541617,116.589213 57.647187,115.198443 57.105567,114.000453 L47.475747,92.624823 C46.846917,91.238643 45.460737,90.343593 43.932267,90.343593 L28.909197,90.343593 C27.380727,90.343593 25.994547,91.238643 25.365717,92.629413 L15.735897,114.000453 C15.198867,115.198443 15.304437,116.589213 16.020477,117.690813 C16.736517,118.792413 17.962047,119.462553 19.279377,119.462553 L24.654267,119.462553 C23.993307,121.000203 23.626107,122.693913 23.626107,124.474833 L23.626107,126.581643 C23.626107,128.357973 23.993307,130.051683 24.654267,131.593923 L3.884517,131.593923 C1.740987,131.593923 0.001377,133.328943 0.001377,135.467883 L0.001377,190.538703 C0.001377,192.682233 1.740987,194.417253 3.884517,194.417253 L53.190297,194.417253 C55.338417,194.417253 57.078027,192.682233 57.078027,190.538703 L57.078027,135.467883 C57.078027,133.328943 55.338417,131.593923 53.190297,131.593923 L48.187197,131.593923 C48.848157,130.051683 49.219947,128.357973 49.219947,126.581643 L49.219947,124.474833 C49.219947,122.693913 48.848157,121.000203 48.187197,119.462553 L53.562087,119.462553 C54.879417,119.462553 56.109537,118.792413 56.825577,117.690813 L56.825577,117.690813 Z M31.424517,98.086923 L41.421537,98.086923 L47.558367,111.714633 L25.283097,111.714633 L31.424517,98.086923 Z M41.449077,124.474833 L41.449077,126.581643 C41.449077,129.344823 39.195387,131.593923 36.423027,131.593923 C33.650667,131.593923 31.392387,129.344823 31.392387,126.581643 L31.392387,124.474833 C31.392387,121.707063 33.650667,119.462553 36.423027,119.462553 C39.195387,119.462553 41.449077,121.707063 41.449077,124.474833 L41.449077,124.474833 Z M49.307157,139.341843 L49.307157,150.504723 L33.852627,150.504723 C31.709097,150.504723 29.969487,152.239743 29.969487,154.374093 C29.969487,156.513033 31.709097,158.248053 33.852627,158.248053 L49.307157,158.248053 L49.307157,167.758533 L33.852627,167.758533 C31.709097,167.758533 29.969487,169.493553 29.969487,171.632493 C29.969487,173.771433 31.709097,175.506453 33.852627,175.506453 L49.307157,175.506453 L49.307157,186.669333 L7.767657,186.669333 L7.767657,139.341843 L49.307157,139.341843 Z M103.285557,97.334163 C103.285557,99.473103 101.545947,101.208123 99.402417,101.208123 L98.438517,101.208123 C96.294987,101.208123 94.555377,99.473103 94.555377,97.334163 C94.555377,95.195223 96.294987,93.460203 98.438517,93.460203 L99.402417,93.460203 C101.545947,93.460203 103.285557,95.195223 103.285557,97.334163 L103.285557,97.334163 Z M170.882487,80.355753 C170.882487,82.494693 169.142877,84.229713 166.999347,84.229713 L166.035447,84.229713 C163.891917,84.229713 162.152307,82.494693 162.152307,80.355753 C162.152307,78.216813 163.891917,76.481793 166.035447,76.481793 L166.999347,76.481793 C169.142877,76.481793 170.882487,78.216813 170.882487,80.355753 L170.882487,80.355753 Z M184.400037,97.334163 C184.400037,99.473103 182.660427,101.208123 180.516897,101.208123 L179.557587,101.208123 C177.409467,101.208123 175.669857,99.473103 175.669857,97.334163 C175.669857,95.195223 177.409467,93.460203 179.557587,93.460203 L180.516897,93.460203 C182.660427,93.460203 184.400037,95.195223 184.400037,97.334163 L184.400037,97.334163 Z M191.555847,60.389253 L172.103427,60.389253 C172.264077,59.962383 172.351287,59.503383 172.351287,59.021433 C172.351287,56.882493 170.611677,55.147473 168.463557,55.147473 L143.815257,55.147473 C141.667137,55.147473 139.927527,56.882493 139.927527,59.021433 C139.927527,59.503383 140.019327,59.962383 140.179977,60.389253 L79.353297,60.389253 C80.858817,57.938193 81.730917,55.051083 81.730917,51.971193 C81.730917,43.057413 74.455767,35.809803 65.519037,35.809803 L31.952367,35.809803 C28.863297,35.809803 25.971597,36.677313 23.511357,38.178243 L23.511357,11.721483 C23.511357,5.258763 18.237447,-0.001377 11.756367,-0.001377 C5.270697,-0.001377 0.001377,5.258763 0.001377,11.721483 L0.001377,116.717733 C0.001377,118.852083 1.740987,120.587103 3.884517,120.587103 C6.028047,120.587103 7.767657,118.852083 7.767657,116.717733 L7.767657,11.721483 C7.767657,9.527463 9.557757,7.746543 11.756367,7.746543 C13.954977,7.746543 15.740487,9.527463 15.740487,11.721483 L15.740487,78.455493 C15.740487,80.594433 17.480097,82.329453 19.623627,82.329453 C21.771747,82.329453 23.511357,80.594433 23.511357,78.455493 L23.511357,68.137173 L73.960047,68.137173 L73.960047,101.423853 C73.960047,110.176983 81.102087,117.300663 89.882757,117.300663 L197.229087,117.300663 L197.229087,134.136783 L68.369427,134.136783 C66.221307,134.136783 64.486287,135.867213 64.486287,138.006153 C64.486287,140.145093 66.221307,141.880113 68.369427,141.880113 L181.489977,141.880113 L181.489977,150.298173 C181.489977,152.437113 183.224997,154.172133 185.373117,154.172133 L201.112227,154.172133 C203.260347,154.172133 204.995367,152.437113 204.995367,150.298173 L204.995367,73.792053 C204.995367,66.402153 198.968697,60.389253 191.555847,60.389253 L191.555847,60.389253 Z M65.519037,60.389253 L31.952367,60.389253 C27.298107,60.389253 23.511357,56.616273 23.511357,51.971193 C23.511357,47.330703 27.298107,43.553133 31.952367,43.553133 L65.519037,43.553133 C70.173297,43.553133 73.960047,47.330703 73.960047,51.971193 C73.960047,56.616273 70.173297,60.389253 65.519037,60.389253 L65.519037,60.389253 Z M189.256257,146.424213 L197.229087,146.424213 L197.229087,141.880113 L189.256257,141.880113 L189.256257,146.424213 Z M197.229087,109.552743 L89.882757,109.552743 C85.384557,109.552743 81.730917,105.908283 81.730917,101.423853 L81.730917,68.137173 L191.555847,68.137173 C194.686227,68.137173 197.229087,70.670853 197.229087,73.792053 L197.229087,109.552743 Z M157.364937,97.334163 C157.364937,99.473103 155.625327,101.208123 153.481797,101.208123 L152.517897,101.208123 C150.374367,101.208123 148.634757,99.473103 148.634757,97.334163 C148.634757,95.195223 150.374367,93.460203 152.517897,93.460203 L153.481797,93.460203 C155.625327,93.460203 157.364937,95.195223 157.364937,97.334163 L157.364937,97.334163 Z M116.807697,80.355753 C116.807697,82.494693 115.068087,84.229713 112.919967,84.229713 L111.956067,84.229713 C109.812537,84.229713 108.072927,82.494693 108.072927,80.355753 C108.072927,78.216813 109.812537,76.481793 111.956067,76.481793 L112.919967,76.481793 C115.068087,76.481793 116.807697,78.216813 116.807697,80.355753 L116.807697,80.355753 Z M143.847387,80.355753 C143.847387,82.494693 142.103187,84.229713 139.959657,84.229713 L138.995757,84.229713 C136.852227,84.229713 135.112617,82.494693 135.112617,80.355753 C135.112617,78.216813 136.852227,76.481793 138.995757,76.481793 L139.959657,76.481793 C142.103187,76.481793 143.847387,78.216813 143.847387,80.355753 L143.847387,80.355753 Z M130.325247,97.334163 C130.325247,99.473103 128.585637,101.208123 126.442107,101.208123 L125.478207,101.208123 C123.334677,101.208123 121.595067,99.473103 121.595067,97.334163 C121.595067,95.195223 123.334677,93.460203 125.478207,93.460203 L126.442107,93.460203 C128.585637,93.460203 130.325247,95.195223 130.325247,97.334163 L130.325247,97.334163 Z" id="Fill-1" fill="#231F20" mask="url(#mask-2)"></path>
        </g>
    </g>
</svg>