<?xml version="1.0" encoding="UTF-8"?>
<svg width="390px" height="390px" viewBox="0 0 390 390" version="1.1" xmlns="http://www.w3.org/2000/svg" xmlns:xlink="http://www.w3.org/1999/xlink">
    <!-- Generator: Sketch 57.1 (83088) - https://sketch.com -->
    <title>commons-1</title>
    <desc>Created with Sketch.</desc>
    <defs>
        <polygon id="path-1" points="0 0.23715 223.031313 0.23715 223.031313 223.38 0 223.38"></polygon>
    </defs>
    <g id="commons-1" stroke="none" stroke-width="1" fill="none" fill-rule="evenodd">
        <rect fill="#E2F3F7" x="0" y="0" width="390" height="390"></rect>
        <g id="Group-12" transform="translate(83.000000, 84.000000)">
            <g id="Group-3" transform="translate(0.000000, 0.528309)">
                <mask id="mask-2" fill="white">
                    <use xlink:href="#path-1"></use>
                </mask>
                <g id="Clip-2"></g>
                <path d="M221.943483,60.82974 L162.470853,1.32498 C161.768583,0.6273 160.827633,0.23715 159.840783,0.23715 L63.193743,0.23715 C62.206893,0.23715 61.261353,0.6273 60.563673,1.32498 L1.091043,60.82974 C-0.363987,62.28018 -0.363987,64.63944 1.091043,66.08988 C1.788723,66.78756 2.729673,67.17771 3.716523,67.17771 L7.434423,67.17771 L7.434423,212.22171 C7.434423,214.27803 9.096003,215.93961 11.152323,215.93961 L63.193743,215.93961 L63.193743,219.6621 C63.193743,221.71383 64.855323,223.38 66.907053,223.38 L156.122883,223.38 C158.174613,223.38 159.840783,221.71383 159.840783,219.6621 L159.840783,215.93961 L211.882203,215.93961 C213.933933,215.93961 215.595513,214.27803 215.595513,212.22171 L215.595513,67.17771 L219.318003,67.17771 C221.365143,67.17771 223.031313,65.51154 223.031313,63.45981 C223.031313,62.47296 222.641163,61.52742 221.943483,60.82974 L221.943483,60.82974 Z M14.870223,208.50381 L63.193743,208.50381 L63.193743,141.56325 L14.870223,141.56325 L14.870223,208.50381 Z M14.870223,134.12286 L63.193743,134.12286 L63.193743,67.1823 L14.870223,67.1823 L14.870223,134.12286 Z M107.799363,215.93961 L85.496553,215.93961 L85.496553,197.34552 C85.510323,184.4109 95.002443,173.44539 107.799363,171.57726 L107.799363,215.93961 Z M137.537973,215.93961 L115.230573,215.93961 L115.230573,171.57726 C128.027493,173.44539 137.519613,184.4109 137.537973,197.34552 L137.537973,215.93961 Z M152.404983,215.93961 L144.973773,215.93961 L144.973773,197.34552 C144.973773,178.86159 129.992013,163.87524 111.517263,163.87524 C93.037923,163.87524 78.060753,178.86159 78.060753,197.34552 L78.060753,215.93961 L70.629543,215.93961 L70.629543,148.99905 L152.404983,148.99905 L152.404983,215.93961 Z M70.629543,141.55866 L78.060753,141.55866 L78.060753,119.24667 L70.629543,119.24667 L70.629543,141.55866 Z M85.496553,111.80628 L107.799363,111.80628 L107.799363,89.49429 L85.496553,89.49429 L85.496553,111.80628 Z M100.363563,141.55866 L107.799363,141.55866 L107.799363,119.24667 L100.363563,119.24667 L100.363563,141.55866 Z M85.496553,141.55866 L92.932353,141.55866 L92.932353,119.24667 L85.496553,119.24667 L85.496553,141.55866 Z M115.230573,111.80628 L137.533383,111.80628 L137.533383,89.49429 L115.230573,89.49429 L115.230573,111.80628 Z M130.102173,141.55866 L137.537973,141.55866 L137.537973,119.24667 L130.102173,119.24667 L130.102173,141.55866 Z M115.230573,141.55866 L122.666373,141.55866 L122.666373,119.24667 L115.230573,119.24667 L115.230573,141.55866 Z M144.973773,141.55866 L152.404983,141.55866 L152.404983,119.24667 L144.973773,119.24667 L144.973773,141.55866 Z M152.404983,111.80628 L144.973773,111.80628 L144.973773,85.77639 C144.973773,83.72007 143.307603,82.0539 141.251283,82.0539 L81.778653,82.0539 C79.726923,82.0539 78.060753,83.72007 78.060753,85.77639 L78.060753,111.80628 L70.629543,111.80628 L70.629543,67.17771 L152.404983,67.17771 L152.404983,111.80628 Z M159.840783,208.50381 L208.164303,208.50381 L208.164303,141.56325 L159.840783,141.56325 L159.840783,208.50381 Z M159.840783,134.12286 L208.164303,134.12286 L208.164303,67.1823 L159.840783,67.1823 L159.840783,134.12286 Z M12.689973,59.74191 L64.731393,7.67295 L158.303133,7.67295 L210.344553,59.74191 L12.689973,59.74191 Z" id="Fill-1" fill="#231F20" mask="url(#mask-2)"></path>
            </g>
            <path d="M52.042338,82.584504 L26.021628,82.584504 C23.969898,82.584504 22.303728,84.246084 22.303728,86.302404 L22.303728,116.054784 C22.303728,118.111104 23.969898,119.777274 26.021628,119.777274 L52.042338,119.777274 C54.094068,119.777274 55.760238,118.111104 55.760238,116.054784 L55.760238,86.302404 C55.760238,84.246084 54.094068,82.584504 52.042338,82.584504 L52.042338,82.584504 Z M29.739528,112.336884 L48.324438,112.336884 L48.324438,104.896494 L29.739528,104.896494 L29.739528,112.336884 Z M29.739528,97.460694 L48.324438,97.460694 L48.324438,90.024894 L29.739528,90.024894 L29.739528,97.460694 Z" id="Fill-4" fill="#231F20"></path>
            <path d="M197.011521,82.584504 L170.990811,82.584504 C168.939081,82.584504 167.272911,84.246084 167.272911,86.302404 L167.272911,116.054784 C167.272911,118.111104 168.939081,119.777274 170.990811,119.777274 L197.011521,119.777274 C199.063251,119.777274 200.729421,118.111104 200.729421,116.054784 L200.729421,86.302404 C200.729421,84.246084 199.063251,82.584504 197.011521,82.584504 L197.011521,82.584504 Z M174.708711,112.336884 L193.293621,112.336884 L193.293621,104.896494 L174.708711,104.896494 L174.708711,112.336884 Z M174.708711,97.460694 L193.293621,97.460694 L193.293621,90.024894 L174.708711,90.024894 L174.708711,97.460694 Z" id="Fill-6" fill="#231F20"></path>
            <path d="M52.042338,156.965913 L26.021628,156.965913 C23.969898,156.965913 22.303728,158.627493 22.303728,160.683813 L22.303728,190.436193 C22.303728,192.492513 23.969898,194.158683 26.021628,194.158683 L52.042338,194.158683 C54.094068,194.158683 55.760238,192.492513 55.760238,190.436193 L55.760238,160.683813 C55.760238,158.627493 54.094068,156.965913 52.042338,156.965913 L52.042338,156.965913 Z M29.739528,186.718293 L48.324438,186.718293 L48.324438,179.277903 L29.739528,179.277903 L29.739528,186.718293 Z M29.739528,171.842103 L48.324438,171.842103 L48.324438,164.406303 L29.739528,164.406303 L29.739528,171.842103 Z" id="Fill-8" fill="#231F20"></path>
            <path d="M197.011521,156.965913 L170.990811,156.965913 C168.939081,156.965913 167.272911,158.627493 167.272911,160.683813 L167.272911,190.436193 C167.272911,192.492513 168.939081,194.158683 170.990811,194.158683 L197.011521,194.158683 C199.063251,194.158683 200.729421,192.492513 200.729421,190.436193 L200.729421,160.683813 C200.729421,158.627493 199.063251,156.965913 197.011521,156.965913 L197.011521,156.965913 Z M174.708711,186.718293 L193.293621,186.718293 L193.293621,179.277903 L174.708711,179.277903 L174.708711,186.718293 Z M174.708711,171.842103 L193.293621,171.842103 L193.293621,164.406303 L174.708711,164.406303 L174.708711,171.842103 Z" id="Fill-10" fill="#231F20"></path>
        </g>
    </g>
</svg>