<?xml version="1.0" encoding="UTF-8"?>
<svg width="56px" height="32px" viewBox="0 0 56 32" version="1.1" xmlns="http://www.w3.org/2000/svg" xmlns:xlink="http://www.w3.org/1999/xlink">
    <!-- Generator: Sketch 57.1 (83088) - https://sketch.com -->
    <title>delaware-county</title>
    <desc>Created with Sketch.</desc>
    <g id="delaware-county" stroke="none" stroke-width="1" fill="none" fill-rule="evenodd">
        <path d="M31.361,3 L30.717,3.518 L30.51,3.727 L29.977,3.936 L28.483,4.973 L28.379,4.973 L27.95,5.282 L27.632,5.491 L27.847,5.903 L28.062,6.32 L28.165,6.629 L27.528,7.146 L27.1,7.564 L26.352,8.393 L24.866,9.948 L24.754,10.049 L24.754,10.158 L24.754,10.257 L25.288,10.257 L25.398,10.257 L25.605,10.158 L25.716,10.358 L25.932,10.776 L25.821,11.086 L25.716,11.394 L25.716,11.503 L25.605,11.604 L25.398,11.394 L23.372,12.641 L21.345,13.886 L21.138,13.986 L20.709,14.304 L20.176,14.614 L19.645,14.923 L19.54,15.024 L19.858,15.442 L19.962,15.65 L19.111,16.169 L19.429,16.896 L19.008,17.205 L18.683,16.377 L18.261,16.579 L18.476,16.896 L18.046,17.205 L18.261,17.514 L17.618,17.824 L17.943,18.342 L17.299,18.76 L17.084,18.451 L16.981,18.552 L17.084,18.862 L16.878,19.07 L16.131,19.589 L16.02,19.797 L16.131,20.417 L15.487,20.834 L15.382,20.726 L15.28,20.726 L15.169,20.625 L14.851,20.834 L15.169,21.144 L14.214,21.762 L14.422,21.972 L14.533,22.18 L14.533,22.388 L14.318,22.699 L14.104,23.008 L14.104,23.117 L14,23.318 L14,23.525 L14.318,23.735 L14.533,23.943 L14.533,24.254 L14.318,24.563 L14.318,24.873 L14.318,25.29 L14.422,25.29 L14.625,25.26 L17.161,25.007 L20.468,25.216 L24.943,26.671 L28.027,28.434 L33.671,23.971 L38.575,23.768 L42.303,22.416 L42.86,21.968 L42.544,21.453 L42.33,21.042 L41.265,20.934 L40.733,21.352 L40.2,21.042 L39.564,21.042 L39.135,21.042 L38.919,20.726 L38.919,20.417 L38.919,20.315 L38.817,19.898 L39.031,19.898 L39.135,19.898 L39.238,19.689 L39.238,19.589 L39.453,19.487 L39.453,19.379 L39.564,19.279 L39.666,19.171 L39.771,18.969 L39.771,18.034 L39.771,17.616 L40.095,17.824 L40.2,17.616 L40.095,17.414 L39.986,17.097 L39.986,16.579 L40.303,15.751 L40.628,15.65 L40.733,15.542 L40.733,15.341 L40.628,15.232 L40.628,15.132 L40.518,14.923 L40.2,14.822 L39.771,14.404 L39.666,13.886 L39.771,13.677 L39.771,13.469 L39.771,13.159 L39.771,12.95 L39.771,12.749 L39.453,12.641 L39.135,12.641 L38.284,12.331 L37.854,12.122 L37.641,11.713 L37.751,11.503 L35.406,7.975 L35.304,7.666 L35.192,7.458 L34.77,7.666 L34.555,7.766 L34.342,7.666 L33.912,6.838 L33.49,6.211 L33.276,5.903 L32.64,4.865 L32.314,4.347 L32.108,4.038 L31.361,3 Z M14.625,25.26 L14.422,25.29 L14.318,25.29 L14.625,25.26 Z" id="Fill-1" fill="#FEFEFE"></path>
    </g>
</svg>