<?xml version="1.0" encoding="UTF-8"?>
<svg width="56px" height="32px" viewBox="0 0 56 32" version="1.1" xmlns="http://www.w3.org/2000/svg" xmlns:xlink="http://www.w3.org/1999/xlink">
    <!-- Generator: Sketch 57.1 (83088) - https://sketch.com -->
    <title>pennsylvania</title>
    <desc>Created with Sketch.</desc>
    <g id="pennsylvania" stroke="none" stroke-width="1" fill="none" fill-rule="evenodd">
        <g id="Group-5" transform="translate(10.000000, 5.000000)">
            <path d="M35.4811,7.3177 C35.4821,7.3147 35.5021,7.2667 35.5161,7.1947 C35.5301,7.1207 35.4181,7.0767 35.4181,7.0767 L35.0361,6.7837 L34.9281,6.7187 C34.9281,6.7187 34.6591,6.6327 34.5851,6.6187 C34.5101,6.6047 34.4621,6.5727 34.4621,6.5727 C34.4621,6.5727 33.7231,6.0777 33.6831,6.0597 C33.6431,6.0407 33.6231,5.9707 33.6231,5.9707 C33.6231,5.9707 33.3971,5.5537 33.3651,5.4927 C33.3331,5.4317 33.3241,5.3637 33.3241,5.3637 C33.3241,5.3637 33.3121,5.0867 33.3181,5.0007 C33.3241,4.9137 33.3131,4.8567 33.3131,4.8567 C33.1961,4.3297 33.0261,3.9007 33.0151,3.8437 C33.0041,3.7867 32.9661,3.7027 32.9661,3.7027 C32.9661,3.7027 32.6021,3.2587 32.5661,3.2187 C32.5301,3.1787 32.4511,3.1857 32.4511,3.1857 C32.4511,3.1857 32.2291,3.1977 32.1411,3.2017 C32.0521,3.2067 32.0541,3.1417 32.0541,3.1417 C32.0541,3.1417 31.9721,2.8287 31.9501,2.7697 C31.9291,2.7107 31.8971,2.6497 31.8971,2.6497 C31.8971,2.6497 31.6251,2.4107 31.5631,2.3877 C31.5021,2.3647 31.4931,2.3517 31.4761,2.2717 C31.4591,2.1917 31.3531,2.2257 31.3531,2.2257 C29.7191,2.2707 21.7501,2.4777 21.2101,2.4827 C20.6711,2.4877 11.7111,2.5347 11.0731,2.5427 C10.4351,2.5497 5.3961,2.4817 5.2541,2.4757 C5.1131,2.4707 5.1441,2.3667 5.1441,2.3667 C5.1441,2.3667 5.1351,1.1687 5.1471,1.0507 C5.1591,0.9317 5.1681,0.6047 5.1781,0.4967 C5.1821,0.4507 5.1701,0.3727 5.1561,0.2977 C5.1021,0.3097 5.0491,0.3207 5.0101,0.3427 C4.9241,0.3927 3.2941,1.3157 3.2941,1.3157 C3.2941,1.3157 3.1761,1.3587 3.1701,1.2807 C3.1631,1.2027 3.0871,1.2537 3.0091,1.3157 C2.9311,1.3767 2.1021,2.0277 1.8321,2.1177 C1.5611,2.2087 1.2471,2.3557 1.1251,2.3647 C1.0021,2.3737 0.8401,2.4737 0.7531,2.5237 C0.7191,2.5427 0.6641,2.5667 0.6051,2.5897 C0.6301,2.6477 0.6551,2.7207 0.6491,2.7777 C0.6391,2.8847 0.4641,10.5667 0.4641,10.5667 L0.4231,13.1497 C0.4231,13.1497 0.4201,13.2807 0.4091,13.3337 C0.4051,13.3557 0.3991,13.3937 0.3941,13.4297 C0.3871,13.4817 0.3841,13.5327 0.3981,13.5617 C0.4211,13.6107 0.4021,13.9357 0.3941,14.0327 C0.3861,14.1297 0.2541,20.7997 0.2541,20.7997 C0.2541,20.7997 0.2231,20.9037 0.3351,20.8927 C0.3981,20.8857 3.7511,20.9297 6.6741,20.9677 C8.9481,20.9987 10.9611,21.0267 10.9611,21.0267 C10.9611,21.0267 22.0291,20.9827 23.8111,20.9117 C25.2581,20.8537 28.2931,20.7937 29.3811,20.7737 C29.3981,20.7187 29.4251,20.6747 29.4251,20.6747 C29.4251,20.6747 29.5511,20.4247 29.5571,20.3937 C29.5631,20.3617 29.6581,20.2697 29.6581,20.2697 C29.6581,20.2697 29.9161,20.0127 29.9481,19.9637 C29.9791,19.9157 30.0661,19.8667 30.0661,19.8667 C30.0661,19.8667 30.4071,19.7467 30.5131,19.7117 C30.6181,19.6777 31.0181,19.7117 31.2211,19.7397 C31.3631,19.7597 31.5061,19.8907 31.5821,19.9697 C31.8021,19.8057 32.0961,19.5917 32.0961,19.5917 C32.0961,19.5917 32.2631,19.5247 32.3621,19.5227 C32.4611,19.5197 32.6831,19.5077 32.7461,19.4657 L33.1781,19.2197 C33.1781,19.2197 33.3071,19.2347 33.3001,19.1017 C33.2931,18.9677 33.3891,18.7017 33.3891,18.7017 C33.3891,18.7017 33.4601,18.6167 33.5021,18.5697 C33.5451,18.5227 33.7001,18.3997 33.7001,18.3997 C33.7001,18.3997 33.8331,18.2987 33.8491,18.3177 C33.8781,18.2837 33.9021,18.2537 33.9071,18.2427 C33.9251,18.2017 33.9661,18.2207 34.0311,18.2227 C34.0971,18.2247 34.1701,18.1287 34.1701,18.1287 C34.1701,18.1287 34.4391,17.8737 34.5091,17.7997 C34.5781,17.7247 34.9031,17.5247 34.9661,17.4827 C35.0291,17.4397 35.2861,17.3027 35.2861,17.3027 C35.2861,17.3027 35.5661,16.9947 35.6101,16.9377 C35.6541,16.8807 35.5861,16.8347 35.5861,16.8347 C35.5861,16.8347 35.2051,16.4197 35.0651,16.2937 C34.9251,16.1677 34.3881,15.4267 34.3071,15.3347 C34.2261,15.2417 33.6521,14.6917 33.6041,14.6597 C33.5551,14.6287 33.5521,14.5847 33.5521,14.5847 C33.5521,14.5847 33.5511,14.3097 33.5571,14.2227 C33.5631,14.1357 33.5291,14.0857 33.5291,14.0857 C33.5291,14.0857 33.2041,13.8907 33.1111,13.8617 C33.0181,13.8327 33.0261,13.7907 33.0261,13.7907 C33.0261,13.7907 32.7461,13.2527 32.7201,13.2147 C32.6951,13.1777 32.7241,13.0837 32.7241,13.0837 L32.7261,12.3927 C32.7391,12.3297 32.8311,12.2487 32.8311,12.2487 C32.8311,12.2487 33.1201,12.0087 33.1721,11.9637 C33.2251,11.9197 33.2461,11.8687 33.2461,11.8687 C33.2461,11.8687 33.3591,11.6267 33.4191,11.5397 C33.4801,11.4527 33.4351,11.4007 33.4351,11.4007 L33.3341,11.0187 L33.3101,10.9147 C33.3101,10.9147 33.2251,10.8437 33.1851,10.8247 C33.1451,10.8057 33.1191,10.7687 33.1191,10.7687 C33.1191,10.7687 33.0711,10.5617 33.0281,10.4437 C32.9861,10.3247 33.0871,10.3117 33.0871,10.3117 L33.4791,10.0477 L33.5921,9.9707 C33.5921,9.9707 33.7211,9.8207 33.7961,9.7147 C33.8721,9.6087 34.3791,8.8617 34.4111,8.8127 C34.4421,8.7647 34.4541,8.7007 34.4541,8.7007 C34.4541,8.7007 34.4811,8.5087 34.5081,8.4257 C34.5351,8.3437 34.5681,8.2287 34.5681,8.2287 C34.5681,8.2287 34.7131,7.9937 34.7591,7.9257 C34.8051,7.8577 34.8831,7.7967 34.8831,7.7967 C34.8831,7.7967 35.3731,7.4197 35.4371,7.3767 C35.5001,7.3347 35.4811,7.3197 35.4811,7.3197 C35.4811,7.3197 35.4811,7.3187 35.4811,7.3177" id="Fill-1" fill="#FEFEFE"></path>
            <path d="M35.4811,7.3177 C35.4821,7.3147 35.5021,7.2667 35.5161,7.1947 C35.5301,7.1207 35.4181,7.0767 35.4181,7.0767 L35.0361,6.7837 L34.9281,6.7187 C34.9281,6.7187 34.6591,6.6327 34.5851,6.6187 C34.5101,6.6047 34.4621,6.5727 34.4621,6.5727 C34.4621,6.5727 33.7231,6.0777 33.6831,6.0597 C33.6431,6.0407 33.6231,5.9707 33.6231,5.9707 C33.6231,5.9707 33.3971,5.5537 33.3651,5.4927 C33.3331,5.4317 33.3241,5.3637 33.3241,5.3637 C33.3241,5.3637 33.3121,5.0867 33.3181,5.0007 C33.3241,4.9137 33.3131,4.8567 33.3131,4.8567 C33.1961,4.3297 33.0261,3.9007 33.0151,3.8437 C33.0041,3.7867 32.9661,3.7027 32.9661,3.7027 C32.9661,3.7027 32.6021,3.2587 32.5661,3.2187 C32.5301,3.1787 32.4511,3.1857 32.4511,3.1857 C32.4511,3.1857 32.2291,3.1977 32.1411,3.2017 C32.0521,3.2067 32.0541,3.1417 32.0541,3.1417 C32.0541,3.1417 31.9721,2.8287 31.9501,2.7697 C31.9291,2.7107 31.8971,2.6497 31.8971,2.6497 C31.8971,2.6497 31.6251,2.4107 31.5631,2.3877 C31.5021,2.3647 31.4931,2.3517 31.4761,2.2717 C31.4591,2.1917 31.3531,2.2257 31.3531,2.2257 C29.7191,2.2707 21.7501,2.4777 21.2101,2.4827 C20.6711,2.4877 11.7111,2.5347 11.0731,2.5427 C10.4351,2.5497 5.3961,2.4817 5.2541,2.4757 C5.1131,2.4707 5.1441,2.3667 5.1441,2.3667 C5.1441,2.3667 5.1351,1.1687 5.1471,1.0507 C5.1591,0.9317 5.1681,0.6047 5.1781,0.4967 C5.1821,0.4507 5.1701,0.3727 5.1561,0.2977 C5.1021,0.3097 5.0491,0.3207 5.0101,0.3427 C4.9241,0.3927 3.2941,1.3157 3.2941,1.3157 C3.2941,1.3157 3.1761,1.3587 3.1701,1.2807 C3.1631,1.2027 3.0871,1.2537 3.0091,1.3157 C2.9311,1.3767 2.1021,2.0277 1.8321,2.1177 C1.5611,2.2087 1.2471,2.3557 1.1251,2.3647 C1.0021,2.3737 0.8401,2.4737 0.7531,2.5237 C0.7191,2.5427 0.6641,2.5667 0.6051,2.5897 C0.6301,2.6477 0.6551,2.7207 0.6491,2.7777 C0.6391,2.8847 0.4641,10.5667 0.4641,10.5667 L0.4231,13.1497 C0.4231,13.1497 0.4201,13.2807 0.4091,13.3337 C0.4051,13.3557 0.3991,13.3937 0.3941,13.4297 C0.3871,13.4817 0.3841,13.5327 0.3981,13.5617 C0.4211,13.6107 0.4021,13.9357 0.3941,14.0327 C0.3861,14.1297 0.2541,20.7997 0.2541,20.7997 C0.2541,20.7997 0.2231,20.9037 0.3351,20.8927 C0.3981,20.8857 3.7511,20.9297 6.6741,20.9677 C8.9481,20.9987 10.9611,21.0267 10.9611,21.0267 C10.9611,21.0267 22.0291,20.9827 23.8111,20.9117 C25.2581,20.8537 28.2931,20.7937 29.3811,20.7737 C29.3981,20.7187 29.4251,20.6747 29.4251,20.6747 C29.4251,20.6747 29.5511,20.4247 29.5571,20.3937 C29.5631,20.3617 29.6581,20.2697 29.6581,20.2697 C29.6581,20.2697 29.9161,20.0127 29.9481,19.9637 C29.9791,19.9157 30.0661,19.8667 30.0661,19.8667 C30.0661,19.8667 30.4071,19.7467 30.5131,19.7117 C30.6181,19.6777 31.0181,19.7117 31.2211,19.7397 C31.3631,19.7597 31.5061,19.8907 31.5821,19.9697 C31.8021,19.8057 32.0961,19.5917 32.0961,19.5917 C32.0961,19.5917 32.2631,19.5247 32.3621,19.5227 C32.4611,19.5197 32.6831,19.5077 32.7461,19.4657 L33.1781,19.2197 C33.1781,19.2197 33.3071,19.2347 33.3001,19.1017 C33.2931,18.9677 33.3891,18.7017 33.3891,18.7017 C33.3891,18.7017 33.4601,18.6167 33.5021,18.5697 C33.5451,18.5227 33.7001,18.3997 33.7001,18.3997 C33.7001,18.3997 33.8331,18.2987 33.8491,18.3177 C33.8781,18.2837 33.9021,18.2537 33.9071,18.2427 C33.9251,18.2017 33.9661,18.2207 34.0311,18.2227 C34.0971,18.2247 34.1701,18.1287 34.1701,18.1287 C34.1701,18.1287 34.4391,17.8737 34.5091,17.7997 C34.5781,17.7247 34.9031,17.5247 34.9661,17.4827 C35.0291,17.4397 35.2861,17.3027 35.2861,17.3027 C35.2861,17.3027 35.5661,16.9947 35.6101,16.9377 C35.6541,16.8807 35.5861,16.8347 35.5861,16.8347 C35.5861,16.8347 35.2051,16.4197 35.0651,16.2937 C34.9251,16.1677 34.3881,15.4267 34.3071,15.3347 C34.2261,15.2417 33.6521,14.6917 33.6041,14.6597 C33.5551,14.6287 33.5521,14.5847 33.5521,14.5847 C33.5521,14.5847 33.5511,14.3097 33.5571,14.2227 C33.5631,14.1357 33.5291,14.0857 33.5291,14.0857 C33.5291,14.0857 33.2041,13.8907 33.1111,13.8617 C33.0181,13.8327 33.0261,13.7907 33.0261,13.7907 C33.0261,13.7907 32.7461,13.2527 32.7201,13.2147 C32.6951,13.1777 32.7241,13.0837 32.7241,13.0837 L32.7261,12.3927 C32.7391,12.3297 32.8311,12.2487 32.8311,12.2487 C32.8311,12.2487 33.1201,12.0087 33.1721,11.9637 C33.2251,11.9197 33.2461,11.8687 33.2461,11.8687 C33.2461,11.8687 33.3591,11.6267 33.4191,11.5397 C33.4801,11.4527 33.4351,11.4007 33.4351,11.4007 L33.3341,11.0187 L33.3101,10.9147 C33.3101,10.9147 33.2251,10.8437 33.1851,10.8247 C33.1451,10.8057 33.1191,10.7687 33.1191,10.7687 C33.1191,10.7687 33.0711,10.5617 33.0281,10.4437 C32.9861,10.3247 33.0871,10.3117 33.0871,10.3117 L33.4791,10.0477 L33.5921,9.9707 C33.5921,9.9707 33.7211,9.8207 33.7961,9.7147 C33.8721,9.6087 34.3791,8.8617 34.4111,8.8127 C34.4421,8.7647 34.4541,8.7007 34.4541,8.7007 C34.4541,8.7007 34.4811,8.5087 34.5081,8.4257 C34.5351,8.3437 34.5681,8.2287 34.5681,8.2287 C34.5681,8.2287 34.7131,7.9937 34.7591,7.9257 C34.8051,7.8577 34.8831,7.7967 34.8831,7.7967 C34.8831,7.7967 35.3731,7.4197 35.4371,7.3767 C35.5001,7.3347 35.4811,7.3197 35.4811,7.3197 C35.4811,7.3197 35.4811,7.3187 35.4811,7.3177 Z" id="Stroke-3" stroke="#FEFEFE" stroke-width="0.5"></path>
        </g>
    </g>
</svg>